<?xml version="1.0" encoding="UTF-8" standalone="no"?>
<!-- Created with Inkscape (http://www.inkscape.org/) -->

<svg
   xmlns:dc="http://purl.org/dc/elements/1.1/"
   xmlns:cc="http://creativecommons.org/ns#"
   xmlns:rdf="http://www.w3.org/1999/02/22-rdf-syntax-ns#"
   xmlns:svg="http://www.w3.org/2000/svg"
   xmlns="http://www.w3.org/2000/svg"
   xmlns:sodipodi="http://sodipodi.sourceforge.net/DTD/sodipodi-0.dtd"
   xmlns:inkscape="http://www.inkscape.org/namespaces/inkscape"
   width="65.090157mm"
   height="59.428459mm"
   viewBox="0 0 230.63441 210.57328"
   id="svg5468"
   version="1.1"
   inkscape:version="0.91 r13725"
   sodipodi:docname="flying-mole.svg">
  <defs
     id="defs5470" />
  <sodipodi:namedview
     id="base"
     pagecolor="#ffffff"
     bordercolor="#666666"
     borderopacity="1.0"
     inkscape:pageopacity="0.0"
     inkscape:pageshadow="2"
     inkscape:zoom="1.979899"
     inkscape:cx="50.188019"
     inkscape:cy="7.9271907"
     inkscape:document-units="px"
     inkscape:current-layer="layer1"
     showgrid="false"
     fit-margin-top="0"
     fit-margin-left="0"
     fit-margin-right="0"
     fit-margin-bottom="0" />
  <metadata
     id="metadata5473">
    <rdf:RDF>
      <cc:Work
         rdf:about="">
        <dc:format>image/svg+xml</dc:format>
        <dc:type
           rdf:resource="http://purl.org/dc/dcmitype/StillImage" />
        <dc:title />
      </cc:Work>
    </rdf:RDF>
  </metadata>
  <g
     inkscape:label="Layer 1"
     inkscape:groupmode="layer"
     id="layer1"
     transform="translate(-257.68448,-302.59476)">
    <path
       style="fill:#ffffff;fill-opacity:1"
       d="m 357.21949,513.10069 c 0,-0.11325 1.06608,-1.0479 2.36826,-2.07702 3.16959,-2.50494 4.66278,-4.79007 5.57541,-8.53236 l 0.38934,-1.59651 0.0234,1.95 c 0.0144,1.1916 -0.1977,2.5905 -0.54504,3.59679 -0.31263,0.90573 -0.51813,1.6971 -0.45666,1.75857 0.23298,0.23298 2.84724,-2.15352 3.99543,-3.64734 0.65865,-0.85692 1.69179,-2.54598 2.29584,-3.75348 1.10079,-2.20035 2.55339,-7.19262 2.55339,-8.7753 0,-0.4641 0.15471,-0.93945 0.34383,-1.05633 0.56388,-0.34851 0.10716,6.26952 -0.5961,8.6376 -1.45236,4.89039 -5.14236,9.40506 -9.34773,11.43693 -2.25492,1.08945 -6.60057,2.44494 -6.59937,2.05845 z m 12.91035,-1.75704 c 0.006,-0.13686 0.8904,-0.92385 1.96524,-1.74885 2.77275,-2.12823 3.84336,-3.64686 4.9701,-7.05 l 0.5463,-1.65 -0.13668,2.1 c -0.0752,1.155 -0.22542,2.505 -0.3339,3 l -0.19725,0.9 1.26684,-1.2 c 2.84934,-2.69904 4.89276,-6.81207 5.73825,-11.55 0.3981,-2.23089 0.40338,-2.2398 0.6222,-1.05 0.12141,0.66 0.15276,2.01 0.0697,3 -0.59259,7.06374 -4.47531,12.34617 -10.58907,14.40633 -2.54532,0.85767 -3.93561,1.15635 -3.92175,0.84252 z m 58.87953,-1.14921 c -0.35364,-0.24771 -0.72987,-0.84588 -0.83604,-1.32927 -0.10617,-0.48342 -0.37362,-1.02879 -0.59433,-1.21194 -0.22071,-0.18318 -0.51078,-0.69876 -0.64458,-1.14573 -0.20559,-0.68664 -0.26832,-0.53433 -0.40446,0.98169 -0.14646,1.63143 -0.23712,1.82097 -0.99816,2.08716 -1.1877,0.41541 -2.28828,-0.30945 -3.21294,-2.11614 -1.6713,-3.2655 -3.16467,-5.69547 -3.82182,-6.21876 -1.8648,-1.48497 -2.35113,-4.48494 -1.00032,-6.17067 0.342,-0.42678 1.10562,-1.70619 1.69698,-2.84313 0.99252,-1.90827 1.05108,-2.16282 0.76173,-3.31188 -0.35838,-1.42326 -0.18207,-2.409 0.61572,-3.44226 0.51825,-0.67125 0.5226,-0.75921 0.0627,-1.26735 -0.80358,-0.88797 -1.49121,-0.93162 -3.17412,-0.20154 -1.35537,0.588 -2.10165,0.69018 -5.0409,0.69018 l -3.45,0 -2.64537,-1.29927 c -1.45497,-0.7146 -2.83872,-1.22508 -3.075,-1.13442 -0.53595,0.20565 -0.52926,1.03317 0.027,3.33369 0.34866,1.44207 0.37227,2.30706 0.11871,4.35 -0.17406,1.4025 -0.45381,2.99217 -0.62166,3.53262 -0.68052,2.19111 -3.09807,3.94728 -5.45244,3.96078 -0.63186,0.004 -2.04936,-0.34758 -3.15,-0.78048 -1.71681,-0.67524 -2.53971,-1.30407 -5.79078,-4.425 -2.08425,-2.00085 -4.6155,-4.36056 -5.625,-5.24379 -1.44,-1.25994 -1.8354,-1.78959 -1.8354,-2.45853 0,-0.73686 -0.3675,-1.10433 -2.70618,-2.70612 -3.66399,-2.50953 -7.31055,-5.74698 -10.21407,-9.06816 -2.38968,-2.73342 -6.34293,-8.361 -7.3311,-10.43598 -0.28146,-0.59106 -0.84444,-1.2765 -1.251,-1.52322 -0.99147,-0.60156 -7.89765,-8.02788 -7.89765,-8.4924 0,-0.20172 -0.26148,-0.60339 -0.5811,-0.89262 -0.59946,-0.54249 -0.90861,-0.4737 -1.9689,0.43815 -0.8127,0.69894 -2.05119,0.95547 -2.95455,0.61203 -0.41043,-0.15603 -1.61805,-1.13502 -2.68365,-2.17548 l -1.93743,-1.8918 0.0584,-5.13222 0.0584,-5.13222 -1.45515,-0.37296 c -1.66248,-0.42606 -4.34145,-2.45328 -5.3073,-4.01607 -0.34584,-0.55953 -0.62877,-1.44705 -0.62877,-1.97226 0,-1.32843 1.23153,-1.80372 3.9,-1.5051 l 1.95,0.21822 -2.01132,-0.0437 c -1.10622,-0.024 -1.91622,0.0442 -1.8,0.15171 0.5382,0.49767 8.75754,3.6387 10.10034,3.85986 0.89091,0.14673 2.38773,0.12255 3.64746,-0.059 l 2.13648,-0.30777 -0.25434,-1.09428 c -0.13986,-0.60183 -0.25854,-2.78175 -0.26373,-4.84425 -0.0117,-4.69917 -0.39543,-7.14213 -1.49247,-9.50388 -1.56804,-3.37575 -4.53609,-5.77554 -8.26242,-6.68049 -0.825,-0.20037 -4.1325,-0.41457 -7.35,-0.47601 -11.27121,-0.21528 -19.93698,-1.77204 -29.4,-5.28153 -13.1258,-4.86786 -25.07605,-12.69024 -35.67964,-23.35515 l -4.02964,-4.05294 1.15182,2.1 c 7.1334,13.0056 18.38588,25.83783 29.85746,34.04916 6.04778,4.32897 13.54097,8.30397 20.25,10.74225 4.07658,1.48155 10.75977,3.17079 14.55,3.67767 3.46155,0.4629 4.64763,0.9882 1.65,0.73077 -10.16874,-0.87336 -22.10036,-4.73514 -31.50717,-10.1976 -17.79611,-10.33407 -33.2575,-28.15302 -42.28403,-48.73152 -0.75494,-1.7211 -1.33576,-3.23406 -1.29071,-3.36213 0.0451,-0.12807 1.50377,1.1451 3.24159,2.82927 4.76899,4.62174 6.4578,6.16833 9.74032,8.92005 16.43838,13.78011 33.71554,21.81081 52.50087,24.40329 5.35146,0.73851 15.44082,1.45302 17.54913,1.24278 1.0725,-0.10695 3.435,-0.51585 5.25,-0.9087 4.65345,-1.00719 6.77958,-1.36242 7.07208,-1.18164 0.13893,0.0859 0.0566,-0.2196 -0.18291,-0.67878 -0.23952,-0.45918 -0.43632,-1.05459 -0.43731,-1.32315 -0.003,-0.64104 -0.42348,-0.92478 -2.36454,-1.59351 -1.35066,-0.4653 -2.14383,-0.52518 -4.88166,-0.36852 -2.99766,0.17151 -3.31818,0.13779 -3.86229,-0.40632 -1.18947,-1.18947 -0.50478,-2.56122 1.90251,-3.81171 1.44246,-0.74931 1.78581,-0.8019 4.77912,-0.73209 3.04071,0.0709 3.225,0.0413 3.225,-0.51948 0,-0.32706 0.135,-0.67812 0.3,-0.78009 0.165,-0.10197 0.30477,-0.6162 0.31062,-1.1427 0.006,-0.52653 0.20358,-1.2948 0.43938,-1.7073 0.2358,-0.4125 0.43353,-1.44222 0.43938,-2.28828 0.007,-0.99078 0.17082,-1.67121 0.46077,-1.91187 0.73959,-0.61377 3.02583,-0.72618 4.42836,-0.21774 0.69933,0.2535 1.67649,0.55065 2.17149,0.66033 0.495,0.10968 1.65018,0.53421 2.56704,0.94344 l 1.66704,0.74403 4.56015,-2.23317 c 2.50809,-1.22826 5.53791,-2.48373 6.73296,-2.78997 4.04388,-1.03623 11.12256,-0.60399 16.05828,0.98055 0.70704,0.22698 1.65204,0.41352 2.1,0.41457 0.57048,0 0.95814,0.24852 1.29387,0.825 0.27792,0.47727 1.30629,1.24731 2.44755,1.83273 1.08252,0.55527 2.61849,1.58184 3.41331,2.28123 l 1.44507,1.27161 2.10738,-1.56972 c 1.15905,-0.86334 4.07985,-2.57814 6.49068,-3.81066 2.41083,-1.23252 5.04333,-2.74098 5.85,-3.35208 2.70741,-2.0511 12.37395,-11.57799 15.34296,-15.12138 13.03035,-15.55101 20.25264,-33.77851 23.32158,-58.85862 0.25236,-2.0625 0.54237,-4.0875 0.6444,-4.5 l 0.18558,-0.75 0.2682,0.9 c 3.65373,12.26023 5.10723,24.67362 4.40499,37.62005 -1.16862,21.544 -9.06933,40.47676 -22.71249,54.4267 -1.42371,1.45572 -3.26355,3.20031 -4.08855,3.87687 -1.03857,0.85167 -0.66018,0.36048 1.23006,-1.59678 3.67851,-3.80895 4.07514,-4.25454 6.25506,-7.02684 14.71731,-18.71694 20.37348,-43.71777 16.15347,-71.4 -0.53229,-3.49172 -0.89871,-3.52432 -0.95868,-0.0853 -0.0584,3.35015 -1.1982,10.52873 -2.5857,16.28531 -2.55411,10.59685 -7.34976,21.46986 -13.29801,30.15 -4.17978,6.09951 -11.01744,13.42083 -16.87512,18.06885 -3.44259,2.73165 -5.0796,4.52778 -6.19293,6.79482 -0.74532,1.5177 -0.82815,2.00289 -0.82815,4.8519 0,3.04797 0.0412,3.24855 1.11024,5.4 0.61062,1.22892 1.93986,3.24693 2.95386,4.48443 7.86786,9.60213 13.90275,23.90682 15.3072,36.28308 0.53139,4.68267 0.19929,13.11822 -0.67977,17.26692 -0.43776,2.06598 -0.83103,3.27429 -1.05168,3.23124 -0.19383,-0.0378 0.33,0.96174 1.16409,2.22123 2.77923,4.19679 3.79815,8.2833 3.91401,15.69753 0.0815,5.21547 0.0768,5.25894 -0.71808,6.61101 -0.4401,0.74853 -1.15338,1.55004 -1.58508,1.78107 -0.4317,0.23106 -1.2021,1.14921 -1.71198,2.04039 -0.98397,1.71978 -2.44017,3.33939 -4.1367,4.60083 l -1.03389,0.76875 1.9131,1.01967 c 1.82961,0.97515 3.54363,2.44209 4.3563,3.72828 0.2085,0.33 0.46635,1.8396 0.573,3.35469 0.17337,2.46348 0.13368,2.81235 -0.37554,3.3 -0.3132,0.29991 -0.73317,1.05261 -0.93327,1.67262 -0.47526,1.47246 -1.23165,1.88505 -2.37333,1.29465 -0.74865,-0.38715 -0.93777,-0.38961 -1.42773,-0.0186 -0.74238,0.56211 -2.21904,0.56031 -3.02424,-0.004 z m 5.03319,-3.73944 c -0.47397,-1.56042 -1.09917,-2.66136 -2.57532,-4.53495 -1.95183,-2.47734 -2.26161,-3.19197 -0.98145,-2.26398 0.37569,0.27231 1.18788,0.83199 1.80489,1.24368 0.61701,0.41172 1.62951,1.41507 2.25,2.22972 1.224,1.60695 1.57818,1.82145 1.57818,0.9558 0,-0.59682 -0.73551,-1.68396 -2.20917,-3.26547 -0.53166,-0.57054 -0.7404,-0.975 -0.50322,-0.975 0.2229,0 0.92439,0.54567 1.55883,1.21263 0.7479,0.78618 1.15356,1.04457 1.15356,0.7347 0,-0.81339 -2.12766,-2.50692 -4.91694,-3.91371 -2.17077,-1.09482 -2.85447,-1.30989 -3.675,-1.15596 -1.8309,0.34347 -0.89307,-1.00167 1.15716,-1.65978 1.28871,-0.41364 3.37179,-2.5884 4.7076,-4.91475 0.49047,-0.85422 1.50726,-2.15499 2.25948,-2.89059 1.35033,-1.32048 1.36761,-1.36239 1.36053,-3.3 -0.007,-1.86363 -0.20172,-3.13116 -0.7398,-4.8102 -0.21597,-0.67395 -0.19026,-0.70668 0.26094,-0.33225 0.27528,0.22848 0.57612,0.33981 0.66849,0.24744 0.44079,-0.44076 0.4308,-2.74212 -0.0225,-5.17614 -0.5988,-3.21588 -1.63221,-5.64699 -3.32964,-7.83297 -1.66536,-2.14464 -4.05504,-4.68378 -4.2369,-4.50192 -0.0802,0.0802 -0.25602,1.00023 -0.39081,2.04462 -0.96912,7.50942 -3.67401,13.9023 -7.33356,17.33256 l -0.78273,0.73368 1.58178,1.61514 c 0.87,0.8883 2.08356,1.87485 2.69679,2.19228 0.61323,0.31746 1.25922,0.84675 1.43553,1.17621 0.37461,0.69996 0.0985,0.78156 -0.5769,0.17049 -0.26049,-0.23568 -1.24386,-0.48501 -2.18529,-0.55404 -1.67508,-0.12285 -1.71837,-0.10635 -2.025,0.77328 -0.44661,1.28115 -0.38874,2.21526 0.19209,3.10176 0.48261,0.73653 0.47718,0.79359 -0.11988,1.26444 -0.34392,0.2712 -0.99144,1.23558 -1.43898,2.14308 -0.44751,0.9075 -1.13607,2.07975 -1.53012,2.60499 -1.08642,1.44813 -0.92817,2.23254 0.85857,4.25598 1.05315,1.19265 1.86045,2.51349 2.43648,3.98634 1.07241,2.74197 1.57005,3.55269 2.18067,3.55269 0.41445,0 0.44988,-0.30372 0.26523,-2.27409 -0.11718,-1.25076 -0.32613,-2.66826 -0.46428,-3.15 -0.13818,-0.48177 -0.18411,-0.87591 -0.10206,-0.87591 0.082,0 0.95835,0.70875 1.94739,1.575 1.83975,1.61133 3.86157,4.43373 3.86157,5.39061 0,0.79233 0.56016,0.64761 0.7728,-0.19968 0.23832,-0.9495 -0.28944,-2.52144 -1.332,-3.96723 -0.93813,-1.30104 -1.89987,-3.13965 -1.73073,-3.30879 0.25599,-0.25596 4.01964,4.1583 4.81614,5.64876 0.47361,0.88623 1.07772,1.86249 1.34244,2.16945 0.4326,0.50163 0.49146,0.50775 0.58116,0.0605 0.0549,-0.27372 -0.18186,-1.425 -0.52611,-2.55837 z m -3.79095,-23.7852 c -0.30714,-0.70125 -0.86055,-1.76736 -1.22985,-2.36913 -0.65769,-1.07169 -0.65934,-1.09728 -0.0799,-1.24881 0.45255,-0.11832 0.72411,0.10518 1.15572,0.95118 0.52866,1.03626 1.15587,3.94176 0.85092,3.94176 -0.0762,0 -0.38976,-0.57375 -0.69687,-1.275 z m -31.19382,12.24897 c 0.78576,-0.32832 1.09281,-0.68958 1.33869,-1.575 0.42876,-1.54413 0.40668,-2.15988 -0.16809,-4.6869 -0.75489,-3.31899 -4.01607,-9.81207 -4.92816,-9.81207 -0.95391,0 -0.32289,2.8557 1.23123,5.57205 0.79542,1.3902 0.8625,1.65633 0.45684,1.812 -0.48756,0.18711 -2.82681,-2.13531 -5.68527,-5.64438 -1.26981,-1.55883 -3.00603,-2.63967 -4.24023,-2.63967 -0.7119,0 -0.52524,0.3993 0.77784,1.66413 1.18089,1.14618 3.43017,4.10577 4.12827,5.43195 0.18705,0.35535 -0.44196,-0.13599 -1.39779,-1.09182 -1.55235,-1.55235 -4.84872,-3.60426 -5.79021,-3.60426 -0.5259,0 0.60258,1.16007 1.97892,2.03433 1.78755,1.13544 4.35903,3.67752 4.35903,4.3092 0,0.30606 -0.0919,0.55647 -0.2043,0.55647 -0.11235,0 -1.1586,-0.72153 -2.325,-1.60341 -3.90192,-2.95014 -5.5707,-3.94677 -5.5707,-3.32688 0,0.61344 0.84312,1.40634 2.61432,2.45859 2.07189,1.2309 3.32331,2.33406 3.00681,2.65059 -0.0964,0.0964 -1.0968,-0.36873 -2.22318,-1.03356 -3.92154,-2.31453 -5.13993,-1.92753 -1.82748,0.5805 1.17981,0.89328 3.34161,2.73834 4.80399,4.1001 2.74188,2.55318 3.71541,3.20289 5.77554,3.85443 1.60482,0.50754 2.66307,0.5058 3.88893,-0.006 z m 2.26239,-11.52177 c -0.5157,-2.09121 -1.00947,-4.0722 -1.09725,-4.4022 -0.12888,-0.48447 -0.0579,-0.45561 0.36867,0.15 0.29058,0.4125 0.5841,0.81729 0.65232,0.89952 0.0682,0.0823 0.31545,-0.11229 0.54948,-0.43233 1.07514,-1.47036 0.0436,-4.30137 -2.64762,-7.26648 -1.82568,-2.01144 -3.92865,-4.60071 -3.73662,-4.60071 0.0717,0 1.19004,0.81885 2.48511,1.81965 3.82962,2.95944 5.82063,6.02277 6.0573,9.31965 l 0.1428,1.9893 2.72763,0.8367 c 4.02033,1.23327 7.569,0.98346 11.01687,-0.7755 2.68125,-1.36788 6.01704,-6.50985 7.87092,-12.13272 0.75618,-2.29344 0.91458,-3.3201 1.03665,-6.71901 0.088,-2.45037 0.0174,-4.43544 -0.1812,-5.1 -3.44106,-11.51028 -3.56856,-11.76918 -8.88231,-18.03807 -3.62007,-4.2708 -3.55161,-4.15173 -1.84344,-3.20571 0.80883,0.44796 1.50162,0.77874 1.53951,0.73509 0.0379,-0.0436 0.21987,-0.79476 0.4044,-1.66914 0.76593,-3.62973 0.20898,-8.96598 -1.34241,-12.86166 -1.13031,-2.83827 -2.38389,-4.70943 -5.03625,-7.51728 -0.65916,-0.6978 -1.13244,-1.33473 -1.05174,-1.41543 0.0807,-0.0807 0.91599,0.25845 1.85628,0.75363 0.94026,0.49521 1.70958,0.8298 1.70958,0.74361 0,-0.0862 -0.675,-0.90213 -1.5,-1.81311 -0.825,-0.91098 -1.5,-1.84392 -1.5,-2.07318 0,-0.22926 -0.48132,-1.56663 -1.06959,-2.97195 -0.92226,-2.2032 -1.22181,-2.63031 -2.175,-3.10131 -2.35338,-1.16292 -5.49531,-0.39645 -7.9242,1.93308 l -1.11879,1.07301 0.76032,0.99684 c 1.30023,1.70469 2.61183,4.79565 2.28375,5.38191 -0.24915,0.4452 -0.35925,0.3765 -0.81783,-0.5103 -0.29145,-0.56364 -1.00881,-1.74606 -1.59414,-2.62764 -0.91149,-1.3728 -1.11423,-1.5345 -1.41246,-1.12665 -0.19152,0.2619 -0.41325,0.47619 -0.49275,0.47619 -0.0795,0 -0.51009,-0.9318 -0.95691,-2.07066 -0.89817,-2.28927 -2.74662,-4.27923 -5.40477,-5.81856 -0.79704,-0.46158 -1.37925,-0.90918 -1.29375,-0.99465 0.16929,-0.16929 3.07791,1.27299 4.64112,2.30136 l 0.975,0.64143 0,-0.86643 c 0,-2.60343 1.62885,-6.5388 3.91086,-9.44883 l 1.485,-1.89366 -2.47293,-2.3178 c -1.36011,-1.27482 -2.55975,-2.32107 -2.66583,-2.325 -0.34086,-0.0126 -0.57666,0.95859 -0.38175,1.57263 0.34542,1.08837 -0.34401,0.28161 -1.05309,-1.23228 -0.76209,-1.62711 -0.52962,-1.52757 -4.74726,-2.03307 -0.94689,-0.11349 -1.575,-0.33639 -1.575,-0.5589 0,-0.80178 -7.81404,-1.0299 -11.4486,-0.33423 -1.21077,0.23178 -3.0114,0.69579 -4.0014,1.03119 -1.95906,0.66372 -6.41442,2.71338 -7.70955,3.54675 -0.79518,0.51168 -0.82092,0.50646 -1.45149,-0.29517 -0.35307,-0.44886 -1.01433,-1.00869 -1.46949,-1.24404 -1.03746,-0.53649 -2.23857,-0.28785 -1.9533,0.40434 0.33852,0.82146 0.51816,2.95878 0.31626,3.76317 -0.12105,0.48231 -0.47112,0.83343 -0.95097,0.95388 -1.05063,0.26367 -0.67356,0.51453 0.81759,0.54393 1.69512,0.0334 1.77867,0.62085 0.14676,1.03176 -1.43526,0.36141 -1.87305,0.95112 -1.38417,1.86456 0.20097,0.37557 0.20862,0.76671 0.0219,1.11576 -0.15822,0.29559 -0.26421,0.79395 -0.23556,1.10745 0.0968,1.05942 -2.61645,1.87701 -2.99091,0.90126 -0.21336,-0.55608 0.3834,-1.31937 1.30566,-1.67001 0.91602,-0.34827 0.87396,-1.29483 -0.0768,-1.72803 -1.04481,-0.47604 -1.67202,-0.42333 -2.42217,0.20358 -0.93366,0.7803 -1.0794,1.57185 -0.69537,3.77712 0.39021,2.24079 0.213,2.13225 3.90903,2.39409 1.95723,0.13866 2.4633,0.0676 3.6,-0.5058 0.72747,-0.36693 1.4559,-0.97089 1.61877,-1.34214 0.16287,-0.37125 0.39912,-0.675 0.525,-0.675 0.12588,0 0.23337,-0.77625 0.23886,-1.725 l 0.01,-1.725 0.59004,0.70824 c 0.40512,0.4863 0.59001,1.15638 0.59001,2.13825 0,0.86202 0.16737,1.56897 0.42141,1.77978 0.97287,0.80742 7.77675,2.42373 10.20276,2.42373 1.65381,0 7.85412,-1.25319 8.85771,-1.79031 0.80928,-0.43311 1.21812,-0.38601 1.21812,0.14031 0,0.2475 -0.17115,0.45 -0.38037,0.45 -0.67995,0 -2.61963,1.50753 -2.61939,2.03583 0,0.82788 1.71813,4.22358 3.15555,6.23793 1.67883,2.35269 5.4573,5.51928 8.20758,6.87852 1.78713,0.88323 2.43924,1.04829 4.15332,1.05126 2.22822,0.004 5.95908,0.81126 7.59285,1.64313 1.03284,0.5259 5.09046,3.68799 5.09046,3.96699 0,0.0801 -0.50625,-0.16398 -1.125,-0.54237 -1.75929,-1.07586 -4.30962,-2.27067 -5.625,-2.63529 -1.47648,-0.40929 -4.95,-0.44226 -4.95,-0.047 0,0.55869 3.77391,4.32705 5.94696,5.9382 1.20831,0.89586 2.13216,1.69365 2.05296,1.77285 -0.54864,0.54864 -6.75234,-3.71448 -8.33709,-5.72919 -0.33516,-0.42606 -0.88074,-0.91992 -1.21242,-1.0974 -0.58158,-0.31128 -2.04426,-0.67002 -2.05626,-0.50436 -0.12681,1.75083 -0.95295,6.69027 -1.16091,6.9408 -0.15855,0.19107 -0.58269,1.1343 -0.94254,2.09607 -1.0014,2.67651 -4.05717,6.24774 -7.00317,8.18457 -1.86306,1.22487 -5.56608,2.68743 -7.83753,3.09555 -3.44889,0.61968 -3.54099,0.70389 -1.75884,1.60791 1.57578,0.79935 3.69795,2.95593 5.14692,5.23044 0.44655,0.70095 0.93219,1.2747 1.07922,1.275 0.4365,0 -0.008,-4.8414 -0.57174,-6.23691 -0.56151,-1.38843 -0.4197,-1.88178 0.39384,-1.37028 1.14522,0.72012 1.65129,2.18745 1.78182,5.16639 0.0697,1.59024 0.0138,3.40638 -0.12417,4.0359 -0.2397,1.09365 -0.27357,1.12032 -0.76095,0.6 -0.28056,-0.29952 -1.80087,-1.96206 -3.37851,-3.69456 -1.57764,-1.7325 -3.30261,-3.38625 -3.83331,-3.675 -0.80754,-0.43938 -1.77303,-0.52557 -5.9196,-0.52857 -5.60355,-0.004 -7.12389,-0.291 -10.26834,-1.93821 -1.11102,-0.58203 -2.13072,-1.05822 -2.26599,-1.05822 -0.13524,0 -0.4041,0.59142 -0.59742,1.31424 -0.41661,1.55766 -1.69404,3.18576 -2.4996,3.18576 -0.78015,0 -0.72012,-0.35823 0.20493,-1.22271 0.70626,-0.66003 0.76755,-0.89781 0.66276,-2.57091 -0.0635,-1.01397 -0.30213,-2.06853 -0.53028,-2.34342 -0.36807,-0.44352 -0.47076,-0.2865 -0.91149,1.39359 -0.62058,2.36592 -1.31004,3.70566 -2.21067,4.29576 -1.13643,0.7446 -4.33317,0.15234 -6.54435,-1.21248 -1.8336,-1.13175 -2.64423,-1.18419 -2.64423,-0.17109 0,1.20168 4.01937,3.75126 5.91381,3.75126 0.53709,0 1.3782,-0.297 1.86921,-0.66 0.49098,-0.363 1.03314,-0.66 1.20483,-0.66 0.5817,0 0.31614,1.09167 -0.43785,1.8 -0.66714,0.62673 -1.01295,1.5 -0.59403,1.5 0.0858,0 0.69327,-0.33918 1.35,-0.75375 0.97449,-0.61518 1.19403,-0.92532 1.19403,-1.68675 0,-0.7953 0.0664,-0.87786 0.45,-0.5595 0.76977,0.63885 0.54999,2.06589 -0.46413,3.0132 l -0.91413,0.85395 0.81255,1.28718 c 1.29291,2.0481 6.96222,7.66626 9.34314,9.25884 3.13515,2.09706 6.1998,3.51543 8.71719,4.0344 2.67363,0.55119 4.19469,0.55698 6.35538,0.0243 2.20485,-0.54366 2.49966,-0.68208 2.934,-1.37757 0.34122,-0.54642 0.29244,-0.59457 -0.60645,-0.5988 -0.53766,-0.003 -1.17627,-0.13026 -1.41915,-0.28386 -0.95469,-0.60378 1.55721,-0.79548 3.56631,-0.27216 0.27561,0.0718 0.50016,-0.23601 0.63963,-0.87669 0.40071,-1.84077 1.04868,-2.23521 3.47121,-2.11287 l 2.13987,0.10806 0.38289,-2.46138 c 0.42867,-2.7555 0.25005,-6.47085 -0.45477,-9.46044 -0.69219,-2.93592 -0.50511,-3.02667 0.48666,-0.23607 0.82185,2.31255 0.92502,3.0249 1.10802,7.65 l 0.20178,5.1 2.7,0.68526 c 1.485,0.37689 3.51,1.07019 4.5,1.54065 2.15157,1.02249 5.00391,3.31518 6.18828,4.97409 0.99045,1.38729 2.4378,6.07323 2.30331,7.45725 -0.0826,0.85002 -0.15789,0.75288 -0.7656,-0.9876 -0.95217,-2.72691 -2.89374,-5.8002 -4.6776,-7.40403 -1.99932,-1.79757 -4.32453,-2.94249 -7.82064,-3.85086 -1.56726,-0.40719 -3.52641,-1.08336 -4.35369,-1.50258 -1.68864,-0.85569 -2.64723,-0.95385 -3.46626,-0.35499 -0.43476,0.31791 -0.60567,0.99216 -0.77943,3.075 -0.1224,1.4673 -0.50406,3.54531 -0.84816,4.61781 -0.80427,2.50686 -0.7833,5.19975 0.0631,8.1 0.52275,1.79109 0.78417,2.26821 1.28181,2.33934 0.54558,0.078 0.60717,-0.0333 0.48378,-0.8739 -0.16305,-1.11093 0.47862,-1.76718 1.72341,-1.76262 1.10781,0.004 3.53295,1.50696 5.26767,3.26442 0.825,0.83586 1.58466,1.52265 1.68816,1.52622 0.10347,0.004 0.11979,-0.59988 0.0362,-1.34103 -0.2673,-2.37153 1.17345,-3.01917 2.84187,-1.27743 0.78393,0.81837 3.96165,6.22479 3.9939,6.79503 0.006,0.099 0.27102,0.71997 0.58983,1.37997 0.31881,0.66 0.58422,1.48125 0.58983,1.82499 0.0183,1.12443 0.45783,1.10907 0.55464,-0.0195 0.052,-0.60567 -0.32745,-2.81223 -0.84315,-4.90341 z m -31.65132,-27.89772 c -1.37253,-0.64734 -4.42359,-3.29271 -4.20519,-3.64608 0.08,-0.12945 -0.49359,-0.84132 -1.27467,-1.58193 -4.43289,-4.20318 -3.5055,-4.07925 1.21512,0.16236 4.29045,3.85515 6.20148,5.11971 7.46859,4.94217 0.54789,-0.0768 1.26615,-0.24681 1.59615,-0.37788 0.56793,-0.22557 0.57276,-0.20934 0.0902,0.30333 -0.75879,0.80622 -3.37593,0.91221 -4.89024,0.19803 z m -0.45,-55.19628 c 0,-0.88701 8.74095,-3.6582 11.53878,-3.6582 1.86021,0 3.76122,0.44907 3.76122,0.88848 0,0.12636 -1.24875,0.30117 -2.775,0.38844 -2.04864,0.11715 -3.7173,0.45567 -6.375,1.2933 -3.76134,1.18542 -6.15,1.608 -6.15,1.08798 z m 13.35627,79.8168 c -0.11436,-0.28875 -0.25182,-0.7275 -0.30546,-0.975 -0.0536,-0.2475 -0.2553,-0.855 -0.44817,-1.35 -0.19284,-0.495 -0.53454,-2.0289 -0.75933,-3.40866 -0.42597,-2.61462 -0.20289,-6.5415 0.49344,-8.68644 0.17769,-0.54732 0.25104,-1.0671 0.16302,-1.15512 -0.088,-0.088 -0.67521,0.25275 -1.30488,0.75723 -2.0322,1.62816 -6.62904,2.10036 -10.26999,1.05501 -0.61068,-0.17535 -0.42207,0.18984 1.19553,2.31489 4.06287,5.33742 10.0275,11.87646 10.88667,11.93508 0.41541,0.0282 0.50421,-0.0955 0.34917,-0.48699 z m 50.84373,-18.4785 c 0,-0.0569 -0.30375,-0.36069 -0.675,-0.675 l -0.675,-0.5715 0.5715,0.675 c 0.53706,0.63432 0.7785,0.81156 0.7785,0.5715 z m -1.59669,-1.93758 c -0.42057,-0.46473 -0.4887,-1.42764 -0.48279,-6.825 0.007,-6.585 -0.39753,-10.82073 -1.53213,-16.03392 -2.34648,-10.78179 -8.27154,-21.46911 -15.34572,-27.67992 -2.03982,-1.79085 -2.55105,-2.08281 -2.09271,-1.19508 0.14907,0.28875 0.3657,1.04859 0.48138,1.68852 0.3222,1.7826 1.40022,3.951 3.55509,7.15098 2.02344,3.00486 3.04728,5.27682 3.53364,7.84137 0.45069,2.37648 0.32427,6.44655 -0.30939,9.96036 l -0.58929,3.26787 0.6627,0.75795 c 0.3645,0.41688 1.04442,1.15473 1.51095,1.63968 2.14257,2.22723 5.17983,7.94619 6.67278,12.56436 0.579,1.791 1.27614,3.61584 1.5492,4.05516 0.70569,1.13529 2.49003,3.34875 2.69955,3.34875 0.097,0 -0.0439,-0.24348 -0.31326,-0.54108 z m -82.82091,-9.28392 c 0.21918,-0.28875 0.40281,-0.73959 0.40806,-1.00185 0.0108,-0.53673 -1.17579,-1.17315 -2.18721,-1.17315 -0.36768,0 -1.4751,-0.39693 -2.4609,-0.88203 -1.69569,-0.83448 -1.79754,-0.85059 -1.88835,-0.29901 -0.11886,0.72198 0.81951,1.97211 2.28477,3.04374 1.3347,0.97617 3.2232,1.12959 3.84363,0.3123 z m -0.0414,-7.46685 c -0.40755,-0.60054 -0.74097,-1.34601 -0.74097,-1.65663 0,-0.78285 -2.54502,-2.35152 -3.81516,-2.35152 -0.77697,0 -1.07442,0.16839 -1.34448,0.76107 -0.4545,0.99756 -0.19428,1.24065 3.17976,2.97021 3.28176,1.68225 3.70371,1.72518 2.72085,0.27687 z m 3.99549,-4.53012 c 0.16104,-2.46222 -0.12939,-3.07803 -1.45164,-3.07803 -0.7488,0 -0.91218,0.18837 -1.48011,1.70631 -0.82392,2.20209 -0.61203,3.75618 0.70059,5.13864 l 0.9447,0.99498 0.57222,-1.29498 c 0.3147,-0.71223 0.63612,-2.27232 0.71424,-3.46692 z m 15.45687,3.22194 c -0.50631,-0.495 -1.08738,-1.30275 -1.29126,-1.79499 -0.72822,-1.75803 0.26706,-4.04661 2.08776,-4.80078 0.65751,-0.27234 0.91017,-0.57771 0.91017,-1.10001 0,-0.39765 0.2025,-0.80073 0.45,-0.89571 0.32814,-0.12591 0.45,-0.64203 0.45,-1.90608 0,-1.51695 -0.0934,-1.79463 -0.74844,-2.22378 -1.12869,-0.73956 -1.70424,-2.41092 -1.67562,-4.86594 0.0323,-2.7675 -0.55767,-4.26402 -1.77702,-4.50789 -1.10031,-0.22008 -1.57431,-0.76491 -1.44696,-1.66329 0.0828,-0.58416 0.27585,-0.6915 1.24368,-0.6915 1.28781,0 1.53102,-0.28602 1.81041,-2.12898 l 0.18633,-1.22898 -1.67523,0.26268 c -3.11298,0.48816 -4.95273,1.89729 -5.97627,4.57737 -0.29979,0.78501 -0.65946,1.28607 -0.85431,1.19016 -0.18513,-0.0911 0.0684,0.18093 0.56343,0.60456 0.52626,0.45036 1.27374,0.77253 1.8,0.7758 1.9452,0.012 2.91954,0.64446 1.62567,1.0551 -0.34338,0.10899 -1.01838,0.81951 -1.5,1.57896 -0.79671,1.25628 -0.87567,1.61901 -0.87567,4.02207 0,2.44911 -0.32454,3.38175 -0.73107,2.10087 -0.0943,-0.29721 -0.70086,-1.05726 -1.34784,-1.68903 l -1.17636,-1.14867 0.0696,6.16344 c 0.0458,4.05645 0.18597,6.30354 0.40989,6.57339 0.66681,0.80343 7.0452,2.56122 9.50769,2.62014 l 0.88197,0.021 -0.92058,-0.90003 z m 10.45899,-1.45512 c 1.20873,-0.47031 2.85519,-1.09518 3.6588,-1.38861 3.3126,-1.20945 6.82812,-5.28105 7.19466,-8.33274 0.10395,-0.86541 0.19017,-2.54427 0.19161,-3.7308 0.005,-4.12236 1.23459,-2.60424 1.30917,1.61634 0.024,1.35246 0.13206,2.36496 0.24039,2.25 0.68013,-0.72192 1.54365,-4.69065 1.64472,-7.55904 l 0.111,-3.15 -2.42307,-2.1 c -3.3633,-2.91489 -3.17601,-2.88633 -3.41337,-0.52062 -0.23319,2.32446 -1.33752,4.88625 -2.409,5.58828 -2.22858,1.46025 -4.94196,1.28649 -6.82431,-0.43695 l -0.98292,-0.89997 -0.15,2.69658 c -0.14775,2.65629 -0.16767,2.71467 -1.33329,3.90696 -0.72909,0.7458 -1.57314,1.28355 -2.19894,1.40094 -1.18134,0.22161 -1.16925,0.19479 -1.37664,3.05538 -0.13605,1.87626 -0.0858,2.21766 0.35001,2.379 2.24919,0.83268 3.95886,2.99997 3.95886,5.01846 0,0.58407 0.0573,1.06194 0.12732,1.06194 0.07,0 1.1163,-0.38481 2.325,-0.85515 z m -30.54117,-2.77566 c 0.23163,-1.15806 0.0491,-1.46919 -0.86169,-1.46919 -0.39333,0 -1.6341,-0.31824 -2.7573,-0.70722 -1.1232,-0.38898 -2.64966,-0.91548 -3.39216,-1.17 -0.7425,-0.25452 -2.40735,-0.9504 -3.69963,-1.54641 l -2.34966,-1.08369 0.19614,0.97866 c 0.25281,1.26162 1.86933,2.67546 3.86103,3.37689 0.84816,0.29871 2.17887,0.86007 2.95716,1.24743 0.88371,0.43989 1.95381,0.70605 2.85,0.70893 0.78921,0.003 1.63746,0.13545 1.88496,0.29541 0.77253,0.49926 1.11843,0.33282 1.31115,-0.63081 z m 27.19911,-9.79419 c 0.56061,-0.7074 0.63279,-1.09227 0.50631,-2.69994 -0.16473,-2.09448 -0.73833,-3.21552 -1.77327,-3.46572 -0.38133,-0.0922 -1.17537,-0.29232 -1.76454,-0.44475 -1.42509,-0.3687 -2.25672,0.30216 -2.67207,2.15556 -0.39147,1.74684 0.0563,2.94624 1.60905,4.30953 1.47852,1.29816 3.13434,1.35693 4.09452,0.14532 z m -14.01414,-4.08486 c 0.60393,-0.92172 0.62301,-1.09014 0.12351,-1.09014 -0.76929,0 -2.69157,-1.59261 -3.5433,-2.93562 l -0.87633,-1.38186 0,1.95141 c 0,1.25136 -0.15801,2.1603 -0.44046,2.53374 -0.64818,0.85695 -0.55914,1.21827 0.39789,1.61469 0.4716,0.19536 1.37649,0.88671 2.01087,1.53639 l 1.15341,1.18119 0.33525,-1.32039 c 0.18441,-0.72621 0.56202,-1.66644 0.83916,-2.08941 z m 21.80694,-1.76514 c 1.81665,-1.23642 2.24694,-2.11542 2.24694,-4.59018 0,-1.99149 -0.0806,-2.30178 -0.77922,-3.00042 -0.89667,-0.89667 -2.70051,-1.24746 -3.94578,-0.76734 -0.63228,0.24378 -0.825,0.51756 -0.825,1.17207 0,0.46968 -0.1842,1.45179 -0.40932,2.18244 -0.73749,2.39349 -1.10322,4.21545 -0.90921,4.52934 0.282,0.45633 1.95435,1.12389 2.84916,1.13736 0.42936,0.007 1.22694,-0.29202 1.77243,-0.66327 z m -7.20306,-2.26347 c 0,-1.3071 0.32841,-7.88757 0.47844,-9.58653 0.19134,-2.16678 0.19542,-2.175 1.07988,-2.175 1.36839,0 2.64168,1.43487 2.64168,2.97693 0,1.30671 0.10221,1.36764 1.74333,1.03941 1.25346,-0.25071 1.38648,-0.83688 0.52512,-2.31408 -0.40158,-0.68874 -0.95874,-2.07918 -1.2381,-3.08988 l -0.50793,-1.83762 -1.38621,0.36987 c -1.89849,0.50655 -3.58305,1.50894 -5.76408,3.42987 -2.38386,2.09964 -3.57363,4.45944 -3.5673,7.0755 0.003,0.99 0.10599,1.95984 0.23022,2.15517 0.2655,0.41754 4.4757,2.17434 5.23995,2.18649 0.28875,0.005 0.525,-0.099 0.525,-0.23013 z m -3.02082,-13.44003 0.98415,-0.82812 -3.25668,-0.82854 c -1.79115,-0.4557 -4.11825,-1.17117 -5.17134,-1.58994 l -1.91472,-0.76143 -0.88332,0.74328 c -0.48582,0.40878 -1.04169,0.75081 -1.23528,0.76005 -0.19359,0.009 0.67491,0.38772 1.93002,0.84111 2.53335,0.91515 4.78668,2.25252 6.09342,3.61647 l 0.8613,0.89898 0.80415,-1.01187 c 0.44226,-0.55653 1.24701,-1.38453 1.7883,-1.83999 z m -20.91717,-9.1965 c 0.26637,-0.86625 0.46263,-1.5837 0.43614,-1.59435 -0.0264,-0.0105 -2.07315,0.10098 -4.54815,0.24798 -4.61961,0.27444 -6.3,0.73806 -6.3,1.7382 0,0.351 0.68295,0.44172 3.6,0.47829 1.98,0.0249 4.0725,0.17976 4.65,0.34431 1.63119,0.46473 1.64868,0.45492 2.16201,-1.21443 z m 3.98799,-2.30271 1.2,-0.19779 -0.84615,-0.56061 c -1.01907,-0.67518 -2.99379,-0.67053 -4.03161,0.01 -0.68439,0.44841 -0.69393,0.49461 -0.18015,0.8703 0.52503,0.38391 0.85554,0.37353 3.85791,-0.12138 z m 2.55,-3.42324 c 0,-1.48278 -0.72723,-2.29992 -2.04201,-2.29446 -0.60939,0.003 -1.27734,0.11211 -1.48434,0.24354 -0.45363,0.28803 -1.87365,2.17719 -1.87365,2.4927 0,0.12333 0.91434,0.1476 2.0319,0.0539 1.64856,-0.13821 2.10774,-0.0789 2.43399,0.31416 0.55485,0.66855 0.93411,0.33975 0.93411,-0.80985 z m -2.95824,-3.8031 0.70824,-0.60405 -1.19751,0.079 c -0.86328,0.057 -1.22526,0.22557 -1.29699,0.60405 -0.13836,0.73014 0.89091,0.6846 1.78626,-0.079 z m -14.86161,120.05826 -1.16985,-0.0958 2.81166,-1.68558 c 3.2601,-1.95441 7.00137,-5.47686 8.20257,-7.72284 0.63831,-1.19349 0.76593,-1.3161 0.62457,-0.6 -0.32382,1.64031 -1.68561,3.94878 -3.5442,6.00807 l -1.83495,2.0331 1.19004,-0.21531 c 2.20674,-0.3993 6.11388,-1.89195 8.20659,-3.13521 5.21448,-3.09786 8.52363,-7.71135 10.24899,-14.28867 l 0.5514,-2.10198 0.0114,1.5 c 0.034,4.50564 -2.29875,9.91731 -5.77617,13.40013 -3.06531,3.07005 -6.26478,4.86771 -10.87056,6.10767 -1.89993,0.5115 -6.71619,0.95487 -8.6514,0.79641 z m -13.53015,-8.62857 c -3.78747,-0.5148 -7.29684,-1.16895 -7.19091,-1.34034 0.0701,-0.11334 1.64277,-0.37341 3.49497,-0.57795 4.02981,-0.44499 6.02406,-0.93426 8.12598,-1.99356 2.90835,-1.46574 4.49676,-2.62284 7.53042,-5.48559 2.07342,-1.9566 1.21713,-0.54684 -1.31424,2.16372 -1.84803,1.97886 -4.86555,4.36206 -6.06474,4.78983 -0.20982,0.0749 -0.29175,0.23307 -0.18207,0.3516 0.10968,0.1185 1.25718,0.0552 2.55,-0.14064 11.5944,-1.75644 20.51745,-8.48115 26.16363,-19.71771 0.68403,-1.36125 1.30674,-2.475 1.38387,-2.475 0.26253,0 -1.41882,4.34244 -2.55546,6.6 -4.65588,9.24741 -12.32112,15.08004 -22.66137,17.24349 -2.14191,0.44817 -7.70055,0.79686 -9.28008,0.58215 z m -8.4,-13.37475 c -1.815,-0.12921 -4.3125,-0.40728 -5.55,-0.61791 -2.18075,-0.37119 -2.25,-0.40914 -2.25,-1.23336 l 0,-0.85035 2.55,-0.0948 c 4.09226,-0.15207 9.6981,-2.1363 14.37303,-5.08746 1.90458,-1.20231 1.7802,-0.75567 -0.19824,0.71193 -2.21916,1.64613 -5.16615,3.34224 -7.34979,4.23009 -0.94875,0.38574 -1.725,0.8115 -1.725,0.94614 0,0.34404 5.04222,0.30468 8.7432,-0.0683 13.04697,-1.31472 22.41633,-6.78294 28.48467,-16.62441 1.84158,-2.98662 1.90866,-2.44863 0.12345,0.98982 -6.53307,12.58299 -19.87782,18.93177 -37.20132,17.69853 z m 127.095,-2.06148 c -3.30444,-0.86553 -6.345,-2.80854 -6.345,-4.05468 0,-0.4041 0.0585,-0.73473 0.13008,-0.73473 0.0715,0 0.78027,0.40224 1.575,0.89388 2.04705,1.26636 4.70313,2.11641 7.14492,2.28669 2.06829,0.14424 2.08866,0.13854 1.35,-0.37824 -1.09584,-0.76662 -3.3,-3.06045 -3.3,-3.43428 0,-0.17676 0.42423,0.0356 0.94278,0.4719 0.51852,0.43632 1.63227,1.15131 2.475,1.58892 1.3449,0.69834 1.9632,0.81021 5.05722,0.91497 1.93875,0.0656 3.525,0.22143 3.525,0.34617 0,0.35454 -4.37265,2.10138 -6.06222,2.42178 -2.211,0.41931 -4.00029,0.33048 -6.49278,-0.32238 z m 8.18937,-6.68673 c -3.10806,-1.02924 -5.11338,-2.21466 -7.43067,-4.39248 -2.01669,-1.89528 -4.08894,-4.5102 -3.57423,-4.5102 0.14205,0 0.65478,0.4158 1.1394,0.924 1.27116,1.33302 4.51599,3.67086 6.42915,4.63209 2.20404,1.10739 5.01321,1.88367 7.69632,2.12679 2.28933,0.20745 2.8662,-0.0856 1.44402,-0.73359 -0.91341,-0.41619 -3.65577,-2.93439 -4.10046,-3.76533 -0.28908,-0.54012 -0.24177,-0.53328 0.54786,0.0792 1.72182,1.3356 3.5655,2.45142 4.60389,2.78634 0.5832,0.1881 2.81535,0.42267 4.96035,0.52125 l 3.9,0.17925 -1.76472,0.82659 c -3.39027,1.58799 -4.38651,1.824 -8.13528,1.92741 -3.13536,0.0865 -3.87306,0.009 -5.71563,-0.60132 z M 314.16889,474.5947 c -6.59681,-0.54999 -13.31973,-3.34974 -18.69463,-7.78533 -2.43647,-2.01066 -2.75256,-2.49594 -2.07019,-3.17832 0.42297,-0.42297 0.54501,-0.40605 1.2883,0.17862 1.44425,1.13604 3.84119,1.63353 7.77652,1.61406 3.10872,-0.0153 5.04791,-0.21954 10.65,-1.12122 l 1.05,-0.16899 -1.2,0.47598 c -1.97019,0.78147 -7.87541,1.90896 -11.09282,2.11794 -1.65395,0.10743 -3.03993,0.22179 -3.07995,0.25413 -0.19724,0.15933 4.56371,2.64825 6.66877,3.48627 3.77261,1.50189 7.47224,2.16723 12.154,2.1858 4.86411,0.0192 7.38423,-0.38757 12.15,-1.96152 5.82477,-1.92369 12.29025,-5.42256 18.11631,-9.80385 1.37409,-1.03335 2.5575,-1.81968 2.62977,-1.74738 0.1911,0.1911 -2.92728,2.92863 -6.04608,5.3076 -9.91734,7.56486 -20.15262,10.99224 -30.3,10.14621 z m 143.62518,-7.76271 c -3.68319,-0.66 -7.75305,-2.94807 -10.72518,-6.02967 -0.99,-1.02645 -1.50981,-1.67307 -1.15515,-1.43691 0.35466,0.23616 1.66299,1.12527 2.90736,1.97577 4.46235,3.04995 9.59487,4.36503 14.50008,3.71529 2.83794,-0.37593 6.17307,-1.37874 8.44374,-2.53887 1.57992,-0.80721 1.70688,-0.72156 -1.96575,-1.32648 -1.89411,-0.31197 -5.22663,-1.62921 -5.766,-2.27913 -0.16194,-0.19512 0.67986,-0.0246 1.87065,0.37899 2.39442,0.8115 6.70848,1.02957 11.01507,0.55683 l 2.25,-0.24696 -0.9,0.77955 c -2.88273,2.49696 -7.74162,5.13513 -11.1,6.02679 -2.19057,0.58161 -7.22628,0.80979 -9.37482,0.4248 z m -143.61886,-6.02157 c -9.84016,-1.43298 -19.52621,-6.273 -27.54193,-13.76244 -2.93488,-2.74218 -3.18319,-3.1677 -2.34034,-4.01058 0.53162,-0.5316 0.71859,-0.57309 1.15512,-0.25635 1.30061,0.94377 4.93486,2.50881 7.12083,3.06648 1.32,0.33678 4.02,0.75798 6,0.93606 5.7964,0.52125 5.42656,0.87807 -0.75,0.72354 -3.0525,-0.0763 -6.0225,-0.23169 -6.6,-0.34515 l -1.05,-0.20631 0.9,0.75417 c 3.47919,2.9154 10.38072,6.63648 15.70567,8.46795 5.78023,1.98804 8.36698,2.38113 15.79433,2.40012 5.73315,0.0147 7.04478,-0.0732 9.98637,-0.66936 3.88794,-0.78786 8.6412,-2.22702 12.51597,-3.78945 3.15846,-1.27359 2.83221,-0.80283 -0.75234,1.08555 -5.12538,2.70009 -10.99872,4.65795 -16.5,5.50026 -3.10281,0.47505 -10.70244,0.53385 -13.64368,0.10551 z m 141.17506,-7.01223 c -2.97675,-0.67257 -5.66103,-1.61487 -8.28138,-2.90706 -2.25918,-1.11408 -5.25,-2.88606 -5.25,-3.11046 0,-0.0559 1.31877,0.48315 2.93061,1.19778 5.62965,2.49606 10.01883,3.48618 15.51939,3.50094 4.21371,0.0114 7.23405,-0.53739 11.04267,-2.00598 2.80437,-1.08135 6.05262,-2.78643 7.17798,-3.76785 0.62601,-0.54597 0.63225,-0.58065 0.0793,-0.44166 -2.68644,0.67524 -8.06712,0.408 -10.95,-0.54384 l -1.35,-0.44574 1.5,0.19122 c 2.95803,0.37713 7.70949,0.15246 10.10073,-0.47757 2.66538,-0.7023 3.91527,-1.30161 7.39206,-3.5445 1.38939,-0.89634 2.59917,-1.5567 2.68836,-1.46751 0.25833,0.25833 -4.44843,5.26611 -6.5589,6.97839 -3.53886,2.87112 -8.12763,5.23854 -12.42225,6.40887 -3.13149,0.85335 -10.69743,1.095 -13.61862,0.43497 z m -135.33138,-6.95703 c -11.41254,-1.16982 -22.23842,-4.97856 -31.2,-10.97676 -4.67714,-3.13053 -6.88518,-4.96848 -11.41451,-9.50139 -6.60828,-6.6135 -11.89364,-13.90557 -15.25717,-21.04983 -1.7509,-3.71901 -4.31023,-9.88647 -4.1635,-10.0332 0.0702,-0.0702 1.70467,1.8807 3.63221,4.33527 5.31728,6.77109 9.00075,9.4893 21.35297,15.75747 5.33862,2.70909 5.45106,2.883 0.75,1.15989 -5.49336,-2.01354 -12.74032,-5.39733 -15.04631,-7.02555 -0.43797,-0.30924 -0.88773,-0.56226 -0.99947,-0.56226 -0.58828,0 3.97902,6.27984 7.46585,10.26522 15.77014,18.02496 35.72124,26.6529 59.97689,25.93728 4.77585,-0.14091 6.21885,-0.1 6.12759,0.17388 -0.36921,1.10757 -15.01533,2.15643 -21.22455,1.51998 z m 128.4,-5.46642 c -2.9271,-0.6462 -6.17052,-1.82124 -8.02185,-2.90619 -0.70299,-0.41196 -1.27815,-0.79788 -1.27815,-0.85758 0,-0.0597 0.70875,0.16434 1.575,0.49782 4.41177,1.69845 8.00151,2.37933 12.53154,2.37693 8.00499,-0.004 15.96921,-3.07701 23.84346,-9.19938 1.32,-1.02633 2.63268,-2.12598 2.91708,-2.44365 0.49089,-0.54837 0.37698,-0.54216 -2.25,0.12297 -1.5219,0.38532 -4.2738,0.79845 -6.11538,0.918 -3.54027,0.22989 -4.38843,-0.0159 -1.27185,-0.36837 4.94487,-0.55947 10.93503,-2.79246 13.96437,-5.20566 1.49859,-1.19376 1.55928,-1.21344 2.05488,-0.66585 0.46983,0.51918 0.47238,0.61971 0.032,1.25766 -0.26322,0.38136 -1.79541,2.02239 -3.40488,3.64677 -6.24522,6.30315 -13.28247,10.57836 -20.62626,12.53076 -3.47856,0.92481 -10.43283,1.07226 -13.95,0.29577 z m -4.5,-11.72163 c -2.49375,-0.14253 -2.68125,-0.18906 -1.5,-0.37242 0.7425,-0.11523 2.92593,-0.28785 4.85202,-0.38358 16.78644,-0.83421 29.87406,-7.91193 35.78004,-19.34964 1.55175,-3.00513 2.65698,-5.71365 2.4258,-5.9448 -0.0903,-0.0903 -0.53397,0.18057 -0.98598,0.60186 -1.533,1.42875 -4.4658,3.22305 -8.2887,5.07108 -2.09574,1.01307 -3.86709,1.78527 -3.93639,1.716 -0.0693,-0.0693 1.50618,-1.06443 3.50106,-2.21139 6.11112,-3.51369 10.46439,-7.47924 10.93428,-9.96042 0.14703,-0.77634 0.33066,-0.975 0.90126,-0.975 0.61638,0 0.71661,0.14412 0.71661,1.03038 0,1.33098 -0.71241,4.66743 -1.44549,6.76962 -4.239,12.15612 -14.3241,20.45361 -28.03398,23.0649 -4.68261,0.8919 -9.97071,1.22625 -14.92053,0.94341 z m 0.3,-7.97754 c 18.39477,-6.10989 29.94375,-17.99364 35.04009,-36.05577 0.33753,-1.19625 0.51021,-2.175 0.38376,-2.175 -0.12645,0 -0.79104,0.66546 -1.47687,1.47879 -1.23507,1.46472 -6.59469,5.96391 -7.91277,6.64248 -0.37632,0.19371 0.68715,-1.00212 2.36328,-2.65746 1.67613,-1.65531 3.79887,-4.008 4.71726,-5.22816 1.60881,-2.1375 3.48525,-5.73348 3.48525,-6.67905 0,-0.32526 0.31446,-0.4566 1.09314,-0.4566 l 1.09314,0 -0.20463,2.475 c -0.82737,10.00845 -5.06991,20.23236 -11.64555,28.06407 -6.32652,7.53501 -16.3518,13.27695 -26.87853,15.39453 -4.42296,0.88974 -4.43994,0.6528 -0.0576,-0.80283 z m -5.53419,-8.2662 c 9.01035,-5.8587 16.04973,-12.30735 21.62982,-19.81461 6.95202,-9.35301 11.1855,-19.60353 13.1748,-31.89996 0.55383,-3.42351 0.91011,-16.92847 0.5214,-19.76422 l -0.24183,-1.76423 -1.30716,3.26423 c -1.81641,4.53586 -6.45795,13.27117 -8.27013,15.56422 -0.47418,0.6 -0.47418,0.6 -0.2634,0 0.11595,-0.33 0.72981,-1.66284 1.36413,-2.9619 2.76156,-5.65548 5.31555,-12.37705 6.39789,-16.8381 0.6516,-2.68559 0.72792,-3.65764 0.72828,-9.275 2.1e-4,-3.45125 0.067,-6.20838 0.14844,-6.12695 0.25626,0.25627 2.57457,8.38066 3.1926,11.18835 2.45475,11.15187 2.23098,24.09235 -0.60777,35.14852 -2.26317,8.81436 -6.867,18.03798 -12.55344,25.15032 -4.04949,5.06496 -10.7043,10.94538 -16.9296,14.95962 -3.01704,1.94544 -9.26052,5.30514 -9.85884,5.30514 -0.22515,0 1.06851,-0.96096 2.87481,-2.13543 z"
       id="path6133"
       inkscape:connector-curvature="0" />
    <path
       inkscape:connector-curvature="0"
       id="path6135"
       d="m 357.21949,513.10069 c 0,-0.11325 1.06608,-1.0479 2.36826,-2.07702 3.16959,-2.50494 4.66278,-4.79007 5.57541,-8.53236 l 0.38934,-1.59651 0.0234,1.95 c 0.0144,1.1916 -0.1977,2.5905 -0.54504,3.59679 -0.31263,0.90573 -0.51813,1.6971 -0.45666,1.75857 0.23298,0.23298 2.84724,-2.15352 3.99543,-3.64734 0.65865,-0.85692 1.69179,-2.54598 2.29584,-3.75348 1.10079,-2.20035 2.55339,-7.19262 2.55339,-8.7753 0,-0.4641 0.15471,-0.93945 0.34383,-1.05633 0.56388,-0.34851 0.10716,6.26952 -0.5961,8.6376 -1.45236,4.89039 -5.14236,9.40506 -9.34773,11.43693 -2.25492,1.08945 -6.60057,2.44494 -6.59937,2.05845 z m 12.91035,-1.75704 c 0.006,-0.13686 0.8904,-0.92385 1.96524,-1.74885 2.77275,-2.12823 3.84336,-3.64686 4.9701,-7.05 l 0.5463,-1.65 -0.13668,2.1 c -0.0752,1.155 -0.22542,2.505 -0.3339,3 l -0.19725,0.9 1.26684,-1.2 c 2.84934,-2.69904 4.89276,-6.81207 5.73825,-11.55 0.3981,-2.23089 0.40338,-2.2398 0.6222,-1.05 0.12141,0.66 0.15276,2.01 0.0697,3 -0.59259,7.06374 -4.47531,12.34617 -10.58907,14.40633 -2.54532,0.85767 -3.93561,1.15635 -3.92175,0.84252 z m 58.87953,-1.14921 c -0.35364,-0.24771 -0.72987,-0.84588 -0.83604,-1.32927 -0.10617,-0.48342 -0.37362,-1.02879 -0.59433,-1.21194 -0.22071,-0.18318 -0.51078,-0.69876 -0.64458,-1.14573 -0.20559,-0.68664 -0.26832,-0.53433 -0.40446,0.98169 -0.14646,1.63143 -0.23712,1.82097 -0.99816,2.08716 -1.1877,0.41541 -2.28828,-0.30945 -3.21294,-2.11614 -1.6713,-3.2655 -3.16467,-5.69547 -3.82182,-6.21876 -1.8648,-1.48497 -2.35113,-4.48494 -1.00032,-6.17067 0.342,-0.42678 1.10562,-1.70619 1.69698,-2.84313 0.99252,-1.90827 1.05108,-2.16282 0.76173,-3.31188 -0.35838,-1.42326 -0.18207,-2.409 0.61572,-3.44226 0.51825,-0.67125 0.5226,-0.75921 0.0627,-1.26735 -0.80358,-0.88797 -1.49121,-0.93162 -3.17412,-0.20154 -1.35537,0.588 -2.10165,0.69018 -5.0409,0.69018 l -3.45,0 -2.64537,-1.29927 c -1.45497,-0.7146 -2.83872,-1.22508 -3.075,-1.13442 -0.53595,0.20565 -0.52926,1.03317 0.027,3.33369 0.34866,1.44207 0.37227,2.30706 0.11871,4.35 -0.17406,1.4025 -0.45381,2.99217 -0.62166,3.53262 -0.68052,2.19111 -3.09807,3.94728 -5.45244,3.96078 -0.63186,0.004 -2.04936,-0.34758 -3.15,-0.78048 -1.71681,-0.67524 -2.53971,-1.30407 -5.79078,-4.425 -2.08425,-2.00085 -4.6155,-4.36056 -5.625,-5.24379 -1.44,-1.25994 -1.8354,-1.78959 -1.8354,-2.45853 0,-0.73686 -0.3675,-1.10433 -2.70618,-2.70612 -3.66399,-2.50953 -7.31055,-5.74698 -10.21407,-9.06816 -2.38968,-2.73342 -6.34293,-8.361 -7.3311,-10.43598 -0.28146,-0.59106 -0.84444,-1.2765 -1.251,-1.52322 -0.99147,-0.60156 -7.89765,-8.02788 -7.89765,-8.4924 0,-0.20172 -0.26148,-0.60339 -0.5811,-0.89262 -0.59946,-0.54249 -0.90861,-0.4737 -1.9689,0.43815 -0.8127,0.69894 -2.05119,0.95547 -2.95455,0.61203 -0.41043,-0.15603 -1.61805,-1.13502 -2.68365,-2.17548 l -1.93743,-1.8918 0.0584,-5.13222 0.0584,-5.13222 -1.45515,-0.37296 c -1.66248,-0.42606 -4.34145,-2.45328 -5.3073,-4.01607 -0.34584,-0.55953 -0.62877,-1.44705 -0.62877,-1.97226 0,-1.32843 1.23153,-1.80372 3.9,-1.5051 l 1.95,0.21822 -2.01132,-0.0437 c -1.10622,-0.024 -1.91622,0.0442 -1.8,0.15171 0.5382,0.49767 8.75754,3.6387 10.10034,3.85986 0.89091,0.14673 2.38773,0.12255 3.64746,-0.059 l 2.13648,-0.30777 -0.25434,-1.09428 c -0.13986,-0.60183 -0.25854,-2.78175 -0.26373,-4.84425 -0.0117,-4.69917 -0.39543,-7.14213 -1.49247,-9.50388 -1.56804,-3.37575 -4.53609,-5.77554 -8.26242,-6.68049 -0.825,-0.20037 -4.1325,-0.41457 -7.35,-0.47601 -11.27121,-0.21528 -19.93698,-1.77204 -29.4,-5.28153 -13.1258,-4.86786 -25.07605,-12.69024 -35.67964,-23.35515 l -4.02964,-4.05294 1.15182,2.1 c 7.1334,13.0056 18.38588,25.83783 29.85746,34.04916 6.04778,4.32897 13.54097,8.30397 20.25,10.74225 4.07658,1.48155 10.75977,3.17079 14.55,3.67767 3.46155,0.4629 4.64763,0.9882 1.65,0.73077 -10.16874,-0.87336 -22.10036,-4.73514 -31.50717,-10.1976 -17.79611,-10.33407 -33.2575,-28.15302 -42.28403,-48.73152 -0.75494,-1.7211 -1.33576,-3.23406 -1.29071,-3.36213 0.0451,-0.12807 1.50377,1.1451 3.24159,2.82927 4.76899,4.62174 6.4578,6.16833 9.74032,8.92005 16.43838,13.78011 33.71554,21.81081 52.50087,24.40329 5.35146,0.73851 15.44082,1.45302 17.54913,1.24278 1.0725,-0.10695 3.435,-0.51585 5.25,-0.9087 4.65345,-1.00719 6.77958,-1.36242 7.07208,-1.18164 0.13893,0.0859 0.0566,-0.2196 -0.18291,-0.67878 -0.23952,-0.45918 -0.43632,-1.05459 -0.43731,-1.32315 -0.003,-0.64104 -0.42348,-0.92478 -2.36454,-1.59351 -1.35066,-0.4653 -2.14383,-0.52518 -4.88166,-0.36852 -2.99766,0.17151 -3.31818,0.13779 -3.86229,-0.40632 -1.18947,-1.18947 -0.50478,-2.56122 1.90251,-3.81171 1.44246,-0.74931 1.78581,-0.8019 4.77912,-0.73209 3.04071,0.0709 3.225,0.0413 3.225,-0.51948 0,-0.32706 0.135,-0.67812 0.3,-0.78009 0.165,-0.10197 0.30477,-0.6162 0.31062,-1.1427 0.006,-0.52653 0.20358,-1.2948 0.43938,-1.7073 0.2358,-0.4125 0.43353,-1.44222 0.43938,-2.28828 0.007,-0.99078 0.17082,-1.67121 0.46077,-1.91187 0.73959,-0.61377 3.02583,-0.72618 4.42836,-0.21774 0.69933,0.2535 1.67649,0.55065 2.17149,0.66033 0.495,0.10968 1.65018,0.53421 2.56704,0.94344 l 1.66704,0.74403 4.56015,-2.23317 c 2.50809,-1.22826 5.53791,-2.48373 6.73296,-2.78997 4.04388,-1.03623 11.12256,-0.60399 16.05828,0.98055 0.70704,0.22698 1.65204,0.41352 2.1,0.41457 0.57048,0 0.95814,0.24852 1.29387,0.825 0.27792,0.47727 1.30629,1.24731 2.44755,1.83273 1.08252,0.55527 2.61849,1.58184 3.41331,2.28123 l 1.44507,1.27161 2.10738,-1.56972 c 1.15905,-0.86334 4.07985,-2.57814 6.49068,-3.81066 2.41083,-1.23252 5.04333,-2.74098 5.85,-3.35208 2.70741,-2.0511 12.37395,-11.57799 15.34296,-15.12138 13.03035,-15.55101 20.25264,-33.77851 23.32158,-58.85862 0.25236,-2.0625 0.54237,-4.0875 0.6444,-4.5 l 0.18558,-0.75 0.2682,0.9 c 3.65373,12.26023 5.10723,24.67362 4.40499,37.62005 -1.16862,21.544 -9.06933,40.47676 -22.71249,54.4267 -1.42371,1.45572 -3.26355,3.20031 -4.08855,3.87687 -1.03857,0.85167 -0.66018,0.36048 1.23006,-1.59678 3.67851,-3.80895 4.07514,-4.25454 6.25506,-7.02684 14.71731,-18.71694 20.37348,-43.71777 16.15347,-71.4 -0.53229,-3.49172 -0.89871,-3.52432 -0.95868,-0.0853 -0.0584,3.35015 -1.1982,10.52873 -2.5857,16.28531 -2.55411,10.59685 -7.34976,21.46986 -13.29801,30.15 -4.17978,6.09951 -11.01744,13.42083 -16.87512,18.06885 -3.44259,2.73165 -5.0796,4.52778 -6.19293,6.79482 -0.74532,1.5177 -0.82815,2.00289 -0.82815,4.8519 0,3.04797 0.0412,3.24855 1.11024,5.4 0.61062,1.22892 1.93986,3.24693 2.95386,4.48443 7.86786,9.60213 13.90275,23.90682 15.3072,36.28308 0.53139,4.68267 0.19929,13.11822 -0.67977,17.26692 -0.43776,2.06598 -0.83103,3.27429 -1.05168,3.23124 -0.19383,-0.0378 0.33,0.96174 1.16409,2.22123 2.77923,4.19679 3.79815,8.2833 3.91401,15.69753 0.0815,5.21547 0.0768,5.25894 -0.71808,6.61101 -0.4401,0.74853 -1.15338,1.55004 -1.58508,1.78107 -0.4317,0.23106 -1.2021,1.14921 -1.71198,2.04039 -0.98397,1.71978 -2.44017,3.33939 -4.1367,4.60083 l -1.03389,0.76875 1.9131,1.01967 c 1.82961,0.97515 3.54363,2.44209 4.3563,3.72828 0.2085,0.33 0.46635,1.8396 0.573,3.35469 0.17337,2.46348 0.13368,2.81235 -0.37554,3.3 -0.3132,0.29991 -0.73317,1.05261 -0.93327,1.67262 -0.47526,1.47246 -1.23165,1.88505 -2.37333,1.29465 -0.74865,-0.38715 -0.93777,-0.38961 -1.42773,-0.0186 -0.74238,0.56211 -2.21904,0.56031 -3.02424,-0.004 z m 5.03319,-3.73944 c -0.47397,-1.56042 -1.09917,-2.66136 -2.57532,-4.53495 -1.95183,-2.47734 -2.26161,-3.19197 -0.98145,-2.26398 0.37569,0.27231 1.18788,0.83199 1.80489,1.24368 0.61701,0.41172 1.62951,1.41507 2.25,2.22972 1.224,1.60695 1.57818,1.82145 1.57818,0.9558 0,-0.59682 -0.73551,-1.68396 -2.20917,-3.26547 -0.53166,-0.57054 -0.7404,-0.975 -0.50322,-0.975 0.2229,0 0.92439,0.54567 1.55883,1.21263 0.7479,0.78618 1.15356,1.04457 1.15356,0.7347 0,-0.81339 -2.12766,-2.50692 -4.91694,-3.91371 -2.17077,-1.09482 -2.85447,-1.30989 -3.675,-1.15596 -1.8309,0.34347 -0.89307,-1.00167 1.15716,-1.65978 1.28871,-0.41364 3.37179,-2.5884 4.7076,-4.91475 0.49047,-0.85422 1.50726,-2.15499 2.25948,-2.89059 1.35033,-1.32048 1.36761,-1.36239 1.36053,-3.3 -0.007,-1.86363 -0.20172,-3.13116 -0.7398,-4.8102 -0.21597,-0.67395 -0.19026,-0.70668 0.26094,-0.33225 0.27528,0.22848 0.57612,0.33981 0.66849,0.24744 0.44079,-0.44076 0.4308,-2.74212 -0.0225,-5.17614 -0.5988,-3.21588 -1.63221,-5.64699 -3.32964,-7.83297 -1.66536,-2.14464 -4.05504,-4.68378 -4.2369,-4.50192 -0.0802,0.0802 -0.25602,1.00023 -0.39081,2.04462 -0.96912,7.50942 -3.67401,13.9023 -7.33356,17.33256 l -0.78273,0.73368 1.58178,1.61514 c 0.87,0.8883 2.08356,1.87485 2.69679,2.19228 0.61323,0.31746 1.25922,0.84675 1.43553,1.17621 0.37461,0.69996 0.0985,0.78156 -0.5769,0.17049 -0.26049,-0.23568 -1.24386,-0.48501 -2.18529,-0.55404 -1.67508,-0.12285 -1.71837,-0.10635 -2.025,0.77328 -0.44661,1.28115 -0.38874,2.21526 0.19209,3.10176 0.48261,0.73653 0.47718,0.79359 -0.11988,1.26444 -0.34392,0.2712 -0.99144,1.23558 -1.43898,2.14308 -0.44751,0.9075 -1.13607,2.07975 -1.53012,2.60499 -1.08642,1.44813 -0.92817,2.23254 0.85857,4.25598 1.05315,1.19265 1.86045,2.51349 2.43648,3.98634 1.07241,2.74197 1.57005,3.55269 2.18067,3.55269 0.41445,0 0.44988,-0.30372 0.26523,-2.27409 -0.11718,-1.25076 -0.32613,-2.66826 -0.46428,-3.15 -0.13818,-0.48177 -0.18411,-0.87591 -0.10206,-0.87591 0.082,0 0.95835,0.70875 1.94739,1.575 1.83975,1.61133 3.86157,4.43373 3.86157,5.39061 0,0.79233 0.56016,0.64761 0.7728,-0.19968 0.23832,-0.9495 -0.28944,-2.52144 -1.332,-3.96723 -0.93813,-1.30104 -1.89987,-3.13965 -1.73073,-3.30879 0.25599,-0.25596 4.01964,4.1583 4.81614,5.64876 0.47361,0.88623 1.07772,1.86249 1.34244,2.16945 0.4326,0.50163 0.49146,0.50775 0.58116,0.0605 0.0549,-0.27372 -0.18186,-1.425 -0.52611,-2.55837 z m -3.79095,-23.7852 c -0.30714,-0.70125 -0.86055,-1.76736 -1.22985,-2.36913 -0.65769,-1.07169 -0.65934,-1.09728 -0.0799,-1.24881 0.45255,-0.11832 0.72411,0.10518 1.15572,0.95118 0.52866,1.03626 1.15587,3.94176 0.85092,3.94176 -0.0762,0 -0.38976,-0.57375 -0.69687,-1.275 z m -31.19382,12.24897 c 0.78576,-0.32832 1.09281,-0.68958 1.33869,-1.575 0.42876,-1.54413 0.40668,-2.15988 -0.16809,-4.6869 -0.75489,-3.31899 -4.01607,-9.81207 -4.92816,-9.81207 -0.95391,0 -0.32289,2.8557 1.23123,5.57205 0.79542,1.3902 0.8625,1.65633 0.45684,1.812 -0.48756,0.18711 -2.82681,-2.13531 -5.68527,-5.64438 -1.26981,-1.55883 -3.00603,-2.63967 -4.24023,-2.63967 -0.7119,0 -0.52524,0.3993 0.77784,1.66413 1.18089,1.14618 3.43017,4.10577 4.12827,5.43195 0.18705,0.35535 -0.44196,-0.13599 -1.39779,-1.09182 -1.55235,-1.55235 -4.84872,-3.60426 -5.79021,-3.60426 -0.5259,0 0.60258,1.16007 1.97892,2.03433 1.78755,1.13544 4.35903,3.67752 4.35903,4.3092 0,0.30606 -0.0919,0.55647 -0.2043,0.55647 -0.11235,0 -1.1586,-0.72153 -2.325,-1.60341 -3.90192,-2.95014 -5.5707,-3.94677 -5.5707,-3.32688 0,0.61344 0.84312,1.40634 2.61432,2.45859 2.07189,1.2309 3.32331,2.33406 3.00681,2.65059 -0.0964,0.0964 -1.0968,-0.36873 -2.22318,-1.03356 -3.92154,-2.31453 -5.13993,-1.92753 -1.82748,0.5805 1.17981,0.89328 3.34161,2.73834 4.80399,4.1001 2.74188,2.55318 3.71541,3.20289 5.77554,3.85443 1.60482,0.50754 2.66307,0.5058 3.88893,-0.006 z m 2.26239,-11.52177 c -0.5157,-2.09121 -1.00947,-4.0722 -1.09725,-4.4022 -0.12888,-0.48447 -0.0579,-0.45561 0.36867,0.15 0.29058,0.4125 0.5841,0.81729 0.65232,0.89952 0.0682,0.0823 0.31545,-0.11229 0.54948,-0.43233 1.07514,-1.47036 0.0436,-4.30137 -2.64762,-7.26648 -1.82568,-2.01144 -3.92865,-4.60071 -3.73662,-4.60071 0.0717,0 1.19004,0.81885 2.48511,1.81965 3.82962,2.95944 5.82063,6.02277 6.0573,9.31965 l 0.1428,1.9893 2.72763,0.8367 c 4.02033,1.23327 7.569,0.98346 11.01687,-0.7755 2.68125,-1.36788 6.01704,-6.50985 7.87092,-12.13272 0.75618,-2.29344 0.91458,-3.3201 1.03665,-6.71901 0.088,-2.45037 0.0174,-4.43544 -0.1812,-5.1 -3.44106,-11.51028 -3.56856,-11.76918 -8.88231,-18.03807 -3.62007,-4.2708 -3.55161,-4.15173 -1.84344,-3.20571 0.80883,0.44796 1.50162,0.77874 1.53951,0.73509 0.0379,-0.0436 0.21987,-0.79476 0.4044,-1.66914 0.76593,-3.62973 0.20898,-8.96598 -1.34241,-12.86166 -1.13031,-2.83827 -2.38389,-4.70943 -5.03625,-7.51728 -0.65916,-0.6978 -1.13244,-1.33473 -1.05174,-1.41543 0.0807,-0.0807 0.91599,0.25845 1.85628,0.75363 0.94026,0.49521 1.70958,0.8298 1.70958,0.74361 0,-0.0862 -0.675,-0.90213 -1.5,-1.81311 -0.825,-0.91098 -1.5,-1.84392 -1.5,-2.07318 0,-0.22926 -0.48132,-1.56663 -1.06959,-2.97195 -0.92226,-2.2032 -1.22181,-2.63031 -2.175,-3.10131 -2.35338,-1.16292 -5.49531,-0.39645 -7.9242,1.93308 l -1.11879,1.07301 0.76032,0.99684 c 1.30023,1.70469 2.61183,4.79565 2.28375,5.38191 -0.24915,0.4452 -0.35925,0.3765 -0.81783,-0.5103 -0.29145,-0.56364 -1.00881,-1.74606 -1.59414,-2.62764 -0.91149,-1.3728 -1.11423,-1.5345 -1.41246,-1.12665 -0.19152,0.2619 -0.41325,0.47619 -0.49275,0.47619 -0.0795,0 -0.51009,-0.9318 -0.95691,-2.07066 -0.89817,-2.28927 -2.74662,-4.27923 -5.40477,-5.81856 -0.79704,-0.46158 -1.37925,-0.90918 -1.29375,-0.99465 0.16929,-0.16929 3.07791,1.27299 4.64112,2.30136 l 0.975,0.64143 0,-0.86643 c 0,-2.60343 1.62885,-6.5388 3.91086,-9.44883 l 1.485,-1.89366 -2.47293,-2.3178 c -1.36011,-1.27482 -2.55975,-2.32107 -2.66583,-2.325 -0.34086,-0.0126 -0.57666,0.95859 -0.38175,1.57263 0.34542,1.08837 -0.34401,0.28161 -1.05309,-1.23228 -0.76209,-1.62711 -0.52962,-1.52757 -4.74726,-2.03307 -0.94689,-0.11349 -1.575,-0.33639 -1.575,-0.5589 0,-0.80178 -7.81404,-1.0299 -11.4486,-0.33423 -1.21077,0.23178 -3.0114,0.69579 -4.0014,1.03119 -1.95906,0.66372 -6.41442,2.71338 -7.70955,3.54675 -0.79518,0.51168 -0.82092,0.50646 -1.45149,-0.29517 -0.35307,-0.44886 -1.01433,-1.00869 -1.46949,-1.24404 -1.03746,-0.53649 -2.23857,-0.28785 -1.9533,0.40434 0.33852,0.82146 0.51816,2.95878 0.31626,3.76317 -0.12105,0.48231 -0.47112,0.83343 -0.95097,0.95388 -1.05063,0.26367 -0.67356,0.51453 0.81759,0.54393 1.69512,0.0334 1.77867,0.62085 0.14676,1.03176 -1.43526,0.36141 -1.87305,0.95112 -1.38417,1.86456 0.20097,0.37557 0.20862,0.76671 0.0219,1.11576 -0.15822,0.29559 -0.26421,0.79395 -0.23556,1.10745 0.0968,1.05942 -2.61645,1.87701 -2.99091,0.90126 -0.21336,-0.55608 0.3834,-1.31937 1.30566,-1.67001 0.91602,-0.34827 0.87396,-1.29483 -0.0768,-1.72803 -1.04481,-0.47604 -1.67202,-0.42333 -2.42217,0.20358 -0.93366,0.7803 -1.0794,1.57185 -0.69537,3.77712 0.39021,2.24079 0.213,2.13225 3.90903,2.39409 1.95723,0.13866 2.4633,0.0676 3.6,-0.5058 0.72747,-0.36693 1.4559,-0.97089 1.61877,-1.34214 0.16287,-0.37125 0.39912,-0.675 0.525,-0.675 0.12588,0 0.23337,-0.77625 0.23886,-1.725 l 0.01,-1.725 0.59004,0.70824 c 0.40512,0.4863 0.59001,1.15638 0.59001,2.13825 0,0.86202 0.16737,1.56897 0.42141,1.77978 0.97287,0.80742 7.77675,2.42373 10.20276,2.42373 1.65381,0 7.85412,-1.25319 8.85771,-1.79031 0.80928,-0.43311 1.21812,-0.38601 1.21812,0.14031 0,0.2475 -0.17115,0.45 -0.38037,0.45 -0.67995,0 -2.61963,1.50753 -2.61939,2.03583 0,0.82788 1.71813,4.22358 3.15555,6.23793 1.67883,2.35269 5.4573,5.51928 8.20758,6.87852 1.78713,0.88323 2.43924,1.04829 4.15332,1.05126 2.22822,0.004 5.95908,0.81126 7.59285,1.64313 1.03284,0.5259 5.09046,3.68799 5.09046,3.96699 0,0.0801 -0.50625,-0.16398 -1.125,-0.54237 -1.75929,-1.07586 -4.30962,-2.27067 -5.625,-2.63529 -1.47648,-0.40929 -4.95,-0.44226 -4.95,-0.047 0,0.55869 3.77391,4.32705 5.94696,5.9382 1.20831,0.89586 2.13216,1.69365 2.05296,1.77285 -0.54864,0.54864 -6.75234,-3.71448 -8.33709,-5.72919 -0.33516,-0.42606 -0.88074,-0.91992 -1.21242,-1.0974 -0.58158,-0.31128 -2.04426,-0.67002 -2.05626,-0.50436 -0.12681,1.75083 -0.95295,6.69027 -1.16091,6.9408 -0.15855,0.19107 -0.58269,1.1343 -0.94254,2.09607 -1.0014,2.67651 -4.05717,6.24774 -7.00317,8.18457 -1.86306,1.22487 -5.56608,2.68743 -7.83753,3.09555 -3.44889,0.61968 -3.54099,0.70389 -1.75884,1.60791 1.57578,0.79935 3.69795,2.95593 5.14692,5.23044 0.44655,0.70095 0.93219,1.2747 1.07922,1.275 0.4365,0 -0.008,-4.8414 -0.57174,-6.23691 -0.56151,-1.38843 -0.4197,-1.88178 0.39384,-1.37028 1.14522,0.72012 1.65129,2.18745 1.78182,5.16639 0.0697,1.59024 0.0138,3.40638 -0.12417,4.0359 -0.2397,1.09365 -0.27357,1.12032 -0.76095,0.6 -0.28056,-0.29952 -1.80087,-1.96206 -3.37851,-3.69456 -1.57764,-1.7325 -3.30261,-3.38625 -3.83331,-3.675 -0.80754,-0.43938 -1.77303,-0.52557 -5.9196,-0.52857 -5.60355,-0.004 -7.12389,-0.291 -10.26834,-1.93821 -1.11102,-0.58203 -2.13072,-1.05822 -2.26599,-1.05822 -0.13524,0 -0.4041,0.59142 -0.59742,1.31424 -0.41661,1.55766 -1.69404,3.18576 -2.4996,3.18576 -0.78015,0 -0.72012,-0.35823 0.20493,-1.22271 0.70626,-0.66003 0.76755,-0.89781 0.66276,-2.57091 -0.0635,-1.01397 -0.30213,-2.06853 -0.53028,-2.34342 -0.36807,-0.44352 -0.47076,-0.2865 -0.91149,1.39359 -0.62058,2.36592 -1.31004,3.70566 -2.21067,4.29576 -1.13643,0.7446 -4.33317,0.15234 -6.54435,-1.21248 -1.8336,-1.13175 -2.64423,-1.18419 -2.64423,-0.17109 0,1.20168 4.01937,3.75126 5.91381,3.75126 0.53709,0 1.3782,-0.297 1.86921,-0.66 0.49098,-0.363 1.03314,-0.66 1.20483,-0.66 0.5817,0 0.31614,1.09167 -0.43785,1.8 -0.66714,0.62673 -1.01295,1.5 -0.59403,1.5 0.0858,0 0.69327,-0.33918 1.35,-0.75375 0.97449,-0.61518 1.19403,-0.92532 1.19403,-1.68675 0,-0.7953 0.0664,-0.87786 0.45,-0.5595 0.76977,0.63885 0.54999,2.06589 -0.46413,3.0132 l -0.91413,0.85395 0.81255,1.28718 c 1.29291,2.0481 6.96222,7.66626 9.34314,9.25884 3.13515,2.09706 6.1998,3.51543 8.71719,4.0344 2.67363,0.55119 4.19469,0.55698 6.35538,0.0243 2.20485,-0.54366 2.49966,-0.68208 2.934,-1.37757 0.34122,-0.54642 0.29244,-0.59457 -0.60645,-0.5988 -0.53766,-0.003 -1.17627,-0.13026 -1.41915,-0.28386 -0.95469,-0.60378 1.55721,-0.79548 3.56631,-0.27216 0.27561,0.0718 0.50016,-0.23601 0.63963,-0.87669 0.40071,-1.84077 1.04868,-2.23521 3.47121,-2.11287 l 2.13987,0.10806 0.38289,-2.46138 c 0.42867,-2.7555 0.25005,-6.47085 -0.45477,-9.46044 -0.69219,-2.93592 -0.50511,-3.02667 0.48666,-0.23607 0.82185,2.31255 0.92502,3.0249 1.10802,7.65 l 0.20178,5.1 2.7,0.68526 c 1.485,0.37689 3.51,1.07019 4.5,1.54065 2.15157,1.02249 5.00391,3.31518 6.18828,4.97409 0.99045,1.38729 2.4378,6.07323 2.30331,7.45725 -0.0826,0.85002 -0.15789,0.75288 -0.7656,-0.9876 -0.95217,-2.72691 -2.89374,-5.8002 -4.6776,-7.40403 -1.99932,-1.79757 -4.32453,-2.94249 -7.82064,-3.85086 -1.56726,-0.40719 -3.52641,-1.08336 -4.35369,-1.50258 -1.68864,-0.85569 -2.64723,-0.95385 -3.46626,-0.35499 -0.43476,0.31791 -0.60567,0.99216 -0.77943,3.075 -0.1224,1.4673 -0.50406,3.54531 -0.84816,4.61781 -0.80427,2.50686 -0.7833,5.19975 0.0631,8.1 0.52275,1.79109 0.78417,2.26821 1.28181,2.33934 0.54558,0.078 0.60717,-0.0333 0.48378,-0.8739 -0.16305,-1.11093 0.47862,-1.76718 1.72341,-1.76262 1.10781,0.004 3.53295,1.50696 5.26767,3.26442 0.825,0.83586 1.58466,1.52265 1.68816,1.52622 0.10347,0.004 0.11979,-0.59988 0.0362,-1.34103 -0.2673,-2.37153 1.17345,-3.01917 2.84187,-1.27743 0.78393,0.81837 3.96165,6.22479 3.9939,6.79503 0.006,0.099 0.27102,0.71997 0.58983,1.37997 0.31881,0.66 0.58422,1.48125 0.58983,1.82499 0.0183,1.12443 0.45783,1.10907 0.55464,-0.0195 0.052,-0.60567 -0.32745,-2.81223 -0.84315,-4.90341 z m -31.65132,-27.89772 c -1.37253,-0.64734 -4.42359,-3.29271 -4.20519,-3.64608 0.08,-0.12945 -0.49359,-0.84132 -1.27467,-1.58193 -4.43289,-4.20318 -3.5055,-4.07925 1.21512,0.16236 4.29045,3.85515 6.20148,5.11971 7.46859,4.94217 0.54789,-0.0768 1.26615,-0.24681 1.59615,-0.37788 0.56793,-0.22557 0.57276,-0.20934 0.0902,0.30333 -0.75879,0.80622 -3.37593,0.91221 -4.89024,0.19803 z m -0.45,-55.19628 c 0,-0.88701 8.74095,-3.6582 11.53878,-3.6582 1.86021,0 3.76122,0.44907 3.76122,0.88848 0,0.12636 -1.24875,0.30117 -2.775,0.38844 -2.04864,0.11715 -3.7173,0.45567 -6.375,1.2933 -3.76134,1.18542 -6.15,1.608 -6.15,1.08798 z m 13.35627,79.8168 c -0.11436,-0.28875 -0.25182,-0.7275 -0.30546,-0.975 -0.0536,-0.2475 -0.2553,-0.855 -0.44817,-1.35 -0.19284,-0.495 -0.53454,-2.0289 -0.75933,-3.40866 -0.42597,-2.61462 -0.20289,-6.5415 0.49344,-8.68644 0.17769,-0.54732 0.25104,-1.0671 0.16302,-1.15512 -0.088,-0.088 -0.67521,0.25275 -1.30488,0.75723 -2.0322,1.62816 -6.62904,2.10036 -10.26999,1.05501 -0.61068,-0.17535 -0.42207,0.18984 1.19553,2.31489 4.06287,5.33742 10.0275,11.87646 10.88667,11.93508 0.41541,0.0282 0.50421,-0.0955 0.34917,-0.48699 z m 50.84373,-18.4785 c 0,-0.0569 -0.30375,-0.36069 -0.675,-0.675 l -0.675,-0.5715 0.5715,0.675 c 0.53706,0.63432 0.7785,0.81156 0.7785,0.5715 z m -1.59669,-1.93758 c -0.42057,-0.46473 -0.4887,-1.42764 -0.48279,-6.825 0.007,-6.585 -0.39753,-10.82073 -1.53213,-16.03392 -2.34648,-10.78179 -8.27154,-21.46911 -15.34572,-27.67992 -2.03982,-1.79085 -2.55105,-2.08281 -2.09271,-1.19508 0.14907,0.28875 0.3657,1.04859 0.48138,1.68852 0.3222,1.7826 1.40022,3.951 3.55509,7.15098 2.02344,3.00486 3.04728,5.27682 3.53364,7.84137 0.45069,2.37648 0.32427,6.44655 -0.30939,9.96036 l -0.58929,3.26787 0.6627,0.75795 c 0.3645,0.41688 1.04442,1.15473 1.51095,1.63968 2.14257,2.22723 5.17983,7.94619 6.67278,12.56436 0.579,1.791 1.27614,3.61584 1.5492,4.05516 0.70569,1.13529 2.49003,3.34875 2.69955,3.34875 0.097,0 -0.0439,-0.24348 -0.31326,-0.54108 z m -82.82091,-9.28392 c 0.21918,-0.28875 0.40281,-0.73959 0.40806,-1.00185 0.0108,-0.53673 -1.17579,-1.17315 -2.18721,-1.17315 -0.36768,0 -1.4751,-0.39693 -2.4609,-0.88203 -1.69569,-0.83448 -1.79754,-0.85059 -1.88835,-0.29901 -0.11886,0.72198 0.81951,1.97211 2.28477,3.04374 1.3347,0.97617 3.2232,1.12959 3.84363,0.3123 z m -0.0414,-7.46685 c -0.40755,-0.60054 -0.74097,-1.34601 -0.74097,-1.65663 0,-0.78285 -2.54502,-2.35152 -3.81516,-2.35152 -0.77697,0 -1.07442,0.16839 -1.34448,0.76107 -0.4545,0.99756 -0.19428,1.24065 3.17976,2.97021 3.28176,1.68225 3.70371,1.72518 2.72085,0.27687 z m 3.99549,-4.53012 c 0.16104,-2.46222 -0.12939,-3.07803 -1.45164,-3.07803 -0.7488,0 -0.91218,0.18837 -1.48011,1.70631 -0.82392,2.20209 -0.61203,3.75618 0.70059,5.13864 l 0.9447,0.99498 0.57222,-1.29498 c 0.3147,-0.71223 0.63612,-2.27232 0.71424,-3.46692 z m 15.45687,3.22194 c -0.50631,-0.495 -1.08738,-1.30275 -1.29126,-1.79499 -0.72822,-1.75803 0.26706,-4.04661 2.08776,-4.80078 0.65751,-0.27234 0.91017,-0.57771 0.91017,-1.10001 0,-0.39765 0.2025,-0.80073 0.45,-0.89571 0.32814,-0.12591 0.45,-0.64203 0.45,-1.90608 0,-1.51695 -0.0934,-1.79463 -0.74844,-2.22378 -1.12869,-0.73956 -1.70424,-2.41092 -1.67562,-4.86594 0.0323,-2.7675 -0.55767,-4.26402 -1.77702,-4.50789 -1.10031,-0.22008 -1.57431,-0.76491 -1.44696,-1.66329 0.0828,-0.58416 0.27585,-0.6915 1.24368,-0.6915 1.28781,0 1.53102,-0.28602 1.81041,-2.12898 l 0.18633,-1.22898 -1.67523,0.26268 c -3.11298,0.48816 -4.95273,1.89729 -5.97627,4.57737 -0.29979,0.78501 -0.65946,1.28607 -0.85431,1.19016 -0.18513,-0.0911 0.0684,0.18093 0.56343,0.60456 0.52626,0.45036 1.27374,0.77253 1.8,0.7758 1.9452,0.012 2.91954,0.64446 1.62567,1.0551 -0.34338,0.10899 -1.01838,0.81951 -1.5,1.57896 -0.79671,1.25628 -0.87567,1.61901 -0.87567,4.02207 0,2.44911 -0.32454,3.38175 -0.73107,2.10087 -0.0943,-0.29721 -0.70086,-1.05726 -1.34784,-1.68903 l -1.17636,-1.14867 0.0696,6.16344 c 0.0458,4.05645 0.18597,6.30354 0.40989,6.57339 0.66681,0.80343 7.0452,2.56122 9.50769,2.62014 l 0.88197,0.021 -0.92058,-0.90003 z m 10.45899,-1.45512 c 1.20873,-0.47031 2.85519,-1.09518 3.6588,-1.38861 3.3126,-1.20945 6.82812,-5.28105 7.19466,-8.33274 0.10395,-0.86541 0.19017,-2.54427 0.19161,-3.7308 0.005,-4.12236 1.23459,-2.60424 1.30917,1.61634 0.024,1.35246 0.13206,2.36496 0.24039,2.25 0.68013,-0.72192 1.54365,-4.69065 1.64472,-7.55904 l 0.111,-3.15 -2.42307,-2.1 c -3.3633,-2.91489 -3.17601,-2.88633 -3.41337,-0.52062 -0.23319,2.32446 -1.33752,4.88625 -2.409,5.58828 -2.22858,1.46025 -4.94196,1.28649 -6.82431,-0.43695 l -0.98292,-0.89997 -0.15,2.69658 c -0.14775,2.65629 -0.16767,2.71467 -1.33329,3.90696 -0.72909,0.7458 -1.57314,1.28355 -2.19894,1.40094 -1.18134,0.22161 -1.16925,0.19479 -1.37664,3.05538 -0.13605,1.87626 -0.0858,2.21766 0.35001,2.379 2.24919,0.83268 3.95886,2.99997 3.95886,5.01846 0,0.58407 0.0573,1.06194 0.12732,1.06194 0.07,0 1.1163,-0.38481 2.325,-0.85515 z m -30.54117,-2.77566 c 0.23163,-1.15806 0.0491,-1.46919 -0.86169,-1.46919 -0.39333,0 -1.6341,-0.31824 -2.7573,-0.70722 -1.1232,-0.38898 -2.64966,-0.91548 -3.39216,-1.17 -0.7425,-0.25452 -2.40735,-0.9504 -3.69963,-1.54641 l -2.34966,-1.08369 0.19614,0.97866 c 0.25281,1.26162 1.86933,2.67546 3.86103,3.37689 0.84816,0.29871 2.17887,0.86007 2.95716,1.24743 0.88371,0.43989 1.95381,0.70605 2.85,0.70893 0.78921,0.003 1.63746,0.13545 1.88496,0.29541 0.77253,0.49926 1.11843,0.33282 1.31115,-0.63081 z m 27.19911,-9.79419 c 0.56061,-0.7074 0.63279,-1.09227 0.50631,-2.69994 -0.16473,-2.09448 -0.73833,-3.21552 -1.77327,-3.46572 -0.38133,-0.0922 -1.17537,-0.29232 -1.76454,-0.44475 -1.42509,-0.3687 -2.25672,0.30216 -2.67207,2.15556 -0.39147,1.74684 0.0563,2.94624 1.60905,4.30953 1.47852,1.29816 3.13434,1.35693 4.09452,0.14532 z m -14.01414,-4.08486 c 0.60393,-0.92172 0.62301,-1.09014 0.12351,-1.09014 -0.76929,0 -2.69157,-1.59261 -3.5433,-2.93562 l -0.87633,-1.38186 0,1.95141 c 0,1.25136 -0.15801,2.1603 -0.44046,2.53374 -0.64818,0.85695 -0.55914,1.21827 0.39789,1.61469 0.4716,0.19536 1.37649,0.88671 2.01087,1.53639 l 1.15341,1.18119 0.33525,-1.32039 c 0.18441,-0.72621 0.56202,-1.66644 0.83916,-2.08941 z m 21.80694,-1.76514 c 1.81665,-1.23642 2.24694,-2.11542 2.24694,-4.59018 0,-1.99149 -0.0806,-2.30178 -0.77922,-3.00042 -0.89667,-0.89667 -2.70051,-1.24746 -3.94578,-0.76734 -0.63228,0.24378 -0.825,0.51756 -0.825,1.17207 0,0.46968 -0.1842,1.45179 -0.40932,2.18244 -0.73749,2.39349 -1.10322,4.21545 -0.90921,4.52934 0.282,0.45633 1.95435,1.12389 2.84916,1.13736 0.42936,0.007 1.22694,-0.29202 1.77243,-0.66327 z m -7.20306,-2.26347 c 0,-1.3071 0.32841,-7.88757 0.47844,-9.58653 0.19134,-2.16678 0.19542,-2.175 1.07988,-2.175 1.36839,0 2.64168,1.43487 2.64168,2.97693 0,1.30671 0.10221,1.36764 1.74333,1.03941 1.25346,-0.25071 1.38648,-0.83688 0.52512,-2.31408 -0.40158,-0.68874 -0.95874,-2.07918 -1.2381,-3.08988 l -0.50793,-1.83762 -1.38621,0.36987 c -1.89849,0.50655 -3.58305,1.50894 -5.76408,3.42987 -2.38386,2.09964 -3.57363,4.45944 -3.5673,7.0755 0.003,0.99 0.10599,1.95984 0.23022,2.15517 0.2655,0.41754 4.4757,2.17434 5.23995,2.18649 0.28875,0.005 0.525,-0.099 0.525,-0.23013 z m -3.02082,-13.44003 0.98415,-0.82812 -3.25668,-0.82854 c -1.79115,-0.4557 -4.11825,-1.17117 -5.17134,-1.58994 l -1.91472,-0.76143 -0.88332,0.74328 c -0.48582,0.40878 -1.04169,0.75081 -1.23528,0.76005 -0.19359,0.009 0.67491,0.38772 1.93002,0.84111 2.53335,0.91515 4.78668,2.25252 6.09342,3.61647 l 0.8613,0.89898 0.80415,-1.01187 c 0.44226,-0.55653 1.24701,-1.38453 1.7883,-1.83999 z m -20.91717,-9.1965 c 0.26637,-0.86625 0.46263,-1.5837 0.43614,-1.59435 -0.0264,-0.0105 -2.07315,0.10098 -4.54815,0.24798 -4.61961,0.27444 -6.3,0.73806 -6.3,1.7382 0,0.351 0.68295,0.44172 3.6,0.47829 1.98,0.0249 4.0725,0.17976 4.65,0.34431 1.63119,0.46473 1.64868,0.45492 2.16201,-1.21443 z m 3.98799,-2.30271 1.2,-0.19779 -0.84615,-0.56061 c -1.01907,-0.67518 -2.99379,-0.67053 -4.03161,0.01 -0.68439,0.44841 -0.69393,0.49461 -0.18015,0.8703 0.52503,0.38391 0.85554,0.37353 3.85791,-0.12138 z m 2.55,-3.42324 c 0,-1.48278 -0.72723,-2.29992 -2.04201,-2.29446 -0.60939,0.003 -1.27734,0.11211 -1.48434,0.24354 -0.45363,0.28803 -1.87365,2.17719 -1.87365,2.4927 0,0.12333 0.91434,0.1476 2.0319,0.0539 1.64856,-0.13821 2.10774,-0.0789 2.43399,0.31416 0.55485,0.66855 0.93411,0.33975 0.93411,-0.80985 z m -2.95824,-3.8031 0.70824,-0.60405 -1.19751,0.079 c -0.86328,0.057 -1.22526,0.22557 -1.29699,0.60405 -0.13836,0.73014 0.89091,0.6846 1.78626,-0.079 z m -14.86161,120.05826 -1.16985,-0.0958 2.81166,-1.68558 c 3.2601,-1.95441 7.00137,-5.47686 8.20257,-7.72284 0.63831,-1.19349 0.76593,-1.3161 0.62457,-0.6 -0.32382,1.64031 -1.68561,3.94878 -3.5442,6.00807 l -1.83495,2.0331 1.19004,-0.21531 c 2.20674,-0.3993 6.11388,-1.89195 8.20659,-3.13521 5.21448,-3.09786 8.52363,-7.71135 10.24899,-14.28867 l 0.5514,-2.10198 0.0114,1.5 c 0.034,4.50564 -2.29875,9.91731 -5.77617,13.40013 -3.06531,3.07005 -6.26478,4.86771 -10.87056,6.10767 -1.89993,0.5115 -6.71619,0.95487 -8.6514,0.79641 z m -13.53015,-8.62857 c -3.78747,-0.5148 -7.29684,-1.16895 -7.19091,-1.34034 0.0701,-0.11334 1.64277,-0.37341 3.49497,-0.57795 4.02981,-0.44499 6.02406,-0.93426 8.12598,-1.99356 2.90835,-1.46574 4.49676,-2.62284 7.53042,-5.48559 2.07342,-1.9566 1.21713,-0.54684 -1.31424,2.16372 -1.84803,1.97886 -4.86555,4.36206 -6.06474,4.78983 -0.20982,0.0749 -0.29175,0.23307 -0.18207,0.3516 0.10968,0.1185 1.25718,0.0552 2.55,-0.14064 11.5944,-1.75644 20.51745,-8.48115 26.16363,-19.71771 0.68403,-1.36125 1.30674,-2.475 1.38387,-2.475 0.26253,0 -1.41882,4.34244 -2.55546,6.6 -4.65588,9.24741 -12.32112,15.08004 -22.66137,17.24349 -2.14191,0.44817 -7.70055,0.79686 -9.28008,0.58215 z m -8.4,-13.37475 c -1.815,-0.12921 -4.3125,-0.40728 -5.55,-0.61791 -2.18075,-0.37119 -2.25,-0.40914 -2.25,-1.23336 l 0,-0.85035 2.55,-0.0948 c 4.09226,-0.15207 9.6981,-2.1363 14.37303,-5.08746 1.90458,-1.20231 1.7802,-0.75567 -0.19824,0.71193 -2.21916,1.64613 -5.16615,3.34224 -7.34979,4.23009 -0.94875,0.38574 -1.725,0.8115 -1.725,0.94614 0,0.34404 5.04222,0.30468 8.7432,-0.0683 13.04697,-1.31472 22.41633,-6.78294 28.48467,-16.62441 1.84158,-2.98662 1.90866,-2.44863 0.12345,0.98982 -6.53307,12.58299 -19.87782,18.93177 -37.20132,17.69853 z m 127.095,-2.06148 c -3.30444,-0.86553 -6.345,-2.80854 -6.345,-4.05468 0,-0.4041 0.0585,-0.73473 0.13008,-0.73473 0.0715,0 0.78027,0.40224 1.575,0.89388 2.04705,1.26636 4.70313,2.11641 7.14492,2.28669 2.06829,0.14424 2.08866,0.13854 1.35,-0.37824 -1.09584,-0.76662 -3.3,-3.06045 -3.3,-3.43428 0,-0.17676 0.42423,0.0356 0.94278,0.4719 0.51852,0.43632 1.63227,1.15131 2.475,1.58892 1.3449,0.69834 1.9632,0.81021 5.05722,0.91497 1.93875,0.0656 3.525,0.22143 3.525,0.34617 0,0.35454 -4.37265,2.10138 -6.06222,2.42178 -2.211,0.41931 -4.00029,0.33048 -6.49278,-0.32238 z m 8.18937,-6.68673 c -3.10806,-1.02924 -5.11338,-2.21466 -7.43067,-4.39248 -2.01669,-1.89528 -4.08894,-4.5102 -3.57423,-4.5102 0.14205,0 0.65478,0.4158 1.1394,0.924 1.27116,1.33302 4.51599,3.67086 6.42915,4.63209 2.20404,1.10739 5.01321,1.88367 7.69632,2.12679 2.28933,0.20745 2.8662,-0.0856 1.44402,-0.73359 -0.91341,-0.41619 -3.65577,-2.93439 -4.10046,-3.76533 -0.28908,-0.54012 -0.24177,-0.53328 0.54786,0.0792 1.72182,1.3356 3.5655,2.45142 4.60389,2.78634 0.5832,0.1881 2.81535,0.42267 4.96035,0.52125 l 3.9,0.17925 -1.76472,0.82659 c -3.39027,1.58799 -4.38651,1.824 -8.13528,1.92741 -3.13536,0.0865 -3.87306,0.009 -5.71563,-0.60132 z M 314.16889,474.5947 c -6.59681,-0.54999 -13.31973,-3.34974 -18.69463,-7.78533 -2.43647,-2.01066 -2.75256,-2.49594 -2.07019,-3.17832 0.42297,-0.42297 0.54501,-0.40605 1.2883,0.17862 1.44425,1.13604 3.84119,1.63353 7.77652,1.61406 3.10872,-0.0153 5.04791,-0.21954 10.65,-1.12122 l 1.05,-0.16899 -1.2,0.47598 c -1.97019,0.78147 -7.87541,1.90896 -11.09282,2.11794 -1.65395,0.10743 -3.03993,0.22179 -3.07995,0.25413 -0.19724,0.15933 4.56371,2.64825 6.66877,3.48627 3.77261,1.50189 7.47224,2.16723 12.154,2.1858 4.86411,0.0192 7.38423,-0.38757 12.15,-1.96152 5.82477,-1.92369 12.29025,-5.42256 18.11631,-9.80385 1.37409,-1.03335 2.5575,-1.81968 2.62977,-1.74738 0.1911,0.1911 -2.92728,2.92863 -6.04608,5.3076 -9.91734,7.56486 -20.15262,10.99224 -30.3,10.14621 z m 143.62518,-7.76271 c -3.68319,-0.66 -7.75305,-2.94807 -10.72518,-6.02967 -0.99,-1.02645 -1.50981,-1.67307 -1.15515,-1.43691 0.35466,0.23616 1.66299,1.12527 2.90736,1.97577 4.46235,3.04995 9.59487,4.36503 14.50008,3.71529 2.83794,-0.37593 6.17307,-1.37874 8.44374,-2.53887 1.57992,-0.80721 1.70688,-0.72156 -1.96575,-1.32648 -1.89411,-0.31197 -5.22663,-1.62921 -5.766,-2.27913 -0.16194,-0.19512 0.67986,-0.0246 1.87065,0.37899 2.39442,0.8115 6.70848,1.02957 11.01507,0.55683 l 2.25,-0.24696 -0.9,0.77955 c -2.88273,2.49696 -7.74162,5.13513 -11.1,6.02679 -2.19057,0.58161 -7.22628,0.80979 -9.37482,0.4248 z m -143.61886,-6.02157 c -9.84016,-1.43298 -19.52621,-6.273 -27.54193,-13.76244 -2.93488,-2.74218 -3.18319,-3.1677 -2.34034,-4.01058 0.53162,-0.5316 0.71859,-0.57309 1.15512,-0.25635 1.30061,0.94377 4.93486,2.50881 7.12083,3.06648 1.32,0.33678 4.02,0.75798 6,0.93606 5.7964,0.52125 5.42656,0.87807 -0.75,0.72354 -3.0525,-0.0763 -6.0225,-0.23169 -6.6,-0.34515 l -1.05,-0.20631 0.9,0.75417 c 3.47919,2.9154 10.38072,6.63648 15.70567,8.46795 5.78023,1.98804 8.36698,2.38113 15.79433,2.40012 5.73315,0.0147 7.04478,-0.0732 9.98637,-0.66936 3.88794,-0.78786 8.6412,-2.22702 12.51597,-3.78945 3.15846,-1.27359 2.83221,-0.80283 -0.75234,1.08555 -5.12538,2.70009 -10.99872,4.65795 -16.5,5.50026 -3.10281,0.47505 -10.70244,0.53385 -13.64368,0.10551 z m 141.17506,-7.01223 c -2.97675,-0.67257 -5.66103,-1.61487 -8.28138,-2.90706 -2.25918,-1.11408 -5.25,-2.88606 -5.25,-3.11046 0,-0.0559 1.31877,0.48315 2.93061,1.19778 5.62965,2.49606 10.01883,3.48618 15.51939,3.50094 4.21371,0.0114 7.23405,-0.53739 11.04267,-2.00598 2.80437,-1.08135 6.05262,-2.78643 7.17798,-3.76785 0.62601,-0.54597 0.63225,-0.58065 0.0793,-0.44166 -2.68644,0.67524 -8.06712,0.408 -10.95,-0.54384 l -1.35,-0.44574 1.5,0.19122 c 2.95803,0.37713 7.70949,0.15246 10.10073,-0.47757 2.66538,-0.7023 3.91527,-1.30161 7.39206,-3.5445 1.38939,-0.89634 2.59917,-1.5567 2.68836,-1.46751 0.25833,0.25833 -4.44843,5.26611 -6.5589,6.97839 -3.53886,2.87112 -8.12763,5.23854 -12.42225,6.40887 -3.13149,0.85335 -10.69743,1.095 -13.61862,0.43497 z m -135.33138,-6.95703 c -11.41254,-1.16982 -22.23842,-4.97856 -31.2,-10.97676 -4.67714,-3.13053 -6.88518,-4.96848 -11.41451,-9.50139 -6.60828,-6.6135 -11.89364,-13.90557 -15.25717,-21.04983 -1.7509,-3.71901 -4.31023,-9.88647 -4.1635,-10.0332 0.0702,-0.0702 1.70467,1.8807 3.63221,4.33527 5.31728,6.77109 9.00075,9.4893 21.35297,15.75747 5.33862,2.70909 5.45106,2.883 0.75,1.15989 -5.49336,-2.01354 -12.74032,-5.39733 -15.04631,-7.02555 -0.43797,-0.30924 -0.88773,-0.56226 -0.99947,-0.56226 -0.58828,0 3.97902,6.27984 7.46585,10.26522 15.77014,18.02496 35.72124,26.6529 59.97689,25.93728 4.77585,-0.14091 6.21885,-0.1 6.12759,0.17388 -0.36921,1.10757 -15.01533,2.15643 -21.22455,1.51998 z m 128.4,-5.46642 c -2.9271,-0.6462 -6.17052,-1.82124 -8.02185,-2.90619 -0.70299,-0.41196 -1.27815,-0.79788 -1.27815,-0.85758 0,-0.0597 0.70875,0.16434 1.575,0.49782 4.41177,1.69845 8.00151,2.37933 12.53154,2.37693 8.00499,-0.004 15.96921,-3.07701 23.84346,-9.19938 1.32,-1.02633 2.63268,-2.12598 2.91708,-2.44365 0.49089,-0.54837 0.37698,-0.54216 -2.25,0.12297 -1.5219,0.38532 -4.2738,0.79845 -6.11538,0.918 -3.54027,0.22989 -4.38843,-0.0159 -1.27185,-0.36837 4.94487,-0.55947 10.93503,-2.79246 13.96437,-5.20566 1.49859,-1.19376 1.55928,-1.21344 2.05488,-0.66585 0.46983,0.51918 0.47238,0.61971 0.032,1.25766 -0.26322,0.38136 -1.79541,2.02239 -3.40488,3.64677 -6.24522,6.30315 -13.28247,10.57836 -20.62626,12.53076 -3.47856,0.92481 -10.43283,1.07226 -13.95,0.29577 z m -4.5,-11.72163 c -2.49375,-0.14253 -2.68125,-0.18906 -1.5,-0.37242 0.7425,-0.11523 2.92593,-0.28785 4.85202,-0.38358 16.78644,-0.83421 29.87406,-7.91193 35.78004,-19.34964 1.55175,-3.00513 2.65698,-5.71365 2.4258,-5.9448 -0.0903,-0.0903 -0.53397,0.18057 -0.98598,0.60186 -1.533,1.42875 -4.4658,3.22305 -8.2887,5.07108 -2.09574,1.01307 -3.86709,1.78527 -3.93639,1.716 -0.0693,-0.0693 1.50618,-1.06443 3.50106,-2.21139 6.11112,-3.51369 10.46439,-7.47924 10.93428,-9.96042 0.14703,-0.77634 0.33066,-0.975 0.90126,-0.975 0.61638,0 0.71661,0.14412 0.71661,1.03038 0,1.33098 -0.71241,4.66743 -1.44549,6.76962 -4.239,12.15612 -14.3241,20.45361 -28.03398,23.0649 -4.68261,0.8919 -9.97071,1.22625 -14.92053,0.94341 z m 0.3,-7.97754 c 18.39477,-6.10989 29.94375,-17.99364 35.04009,-36.05577 0.33753,-1.19625 0.51021,-2.175 0.38376,-2.175 -0.12645,0 -0.79104,0.66546 -1.47687,1.47879 -1.23507,1.46472 -6.59469,5.96391 -7.91277,6.64248 -0.37632,0.19371 0.68715,-1.00212 2.36328,-2.65746 1.67613,-1.65531 3.79887,-4.008 4.71726,-5.22816 1.60881,-2.1375 3.48525,-5.73348 3.48525,-6.67905 0,-0.32526 0.31446,-0.4566 1.09314,-0.4566 l 1.09314,0 -0.20463,2.475 c -0.82737,10.00845 -5.06991,20.23236 -11.64555,28.06407 -6.32652,7.53501 -16.3518,13.27695 -26.87853,15.39453 -4.42296,0.88974 -4.43994,0.6528 -0.0576,-0.80283 z m -5.53419,-8.2662 c 9.01035,-5.8587 16.04973,-12.30735 21.62982,-19.81461 6.95202,-9.35301 11.1855,-19.60353 13.1748,-31.89996 0.55383,-3.42351 0.91011,-16.92847 0.5214,-19.76422 l -0.24183,-1.76423 -1.30716,3.26423 c -1.81641,4.53586 -6.45795,13.27117 -8.27013,15.56422 -0.47418,0.6 -0.47418,0.6 -0.2634,0 0.11595,-0.33 0.72981,-1.66284 1.36413,-2.9619 2.76156,-5.65548 5.31555,-12.37705 6.39789,-16.8381 0.6516,-2.68559 0.72792,-3.65764 0.72828,-9.275 2.1e-4,-3.45125 0.067,-6.20838 0.14844,-6.12695 0.25626,0.25627 2.57457,8.38066 3.1926,11.18835 2.45475,11.15187 2.23098,24.09235 -0.60777,35.14852 -2.26317,8.81436 -6.867,18.03798 -12.55344,25.15032 -4.04949,5.06496 -10.7043,10.94538 -16.9296,14.95962 -3.01704,1.94544 -9.26052,5.30514 -9.85884,5.30514 -0.22515,0 1.06851,-0.96096 2.87481,-2.13543 z"
       style="fill:#ffffff;fill-opacity:1" />
  </g>
</svg>
