<?xml version="1.0" encoding="UTF-8" standalone="no"?>
<!-- Created with Inkscape (http://www.inkscape.org/) -->

<svg
   xmlns:osb="http://www.openswatchbook.org/uri/2009/osb"
   xmlns:dc="http://purl.org/dc/elements/1.1/"
   xmlns:cc="http://creativecommons.org/ns#"
   xmlns:rdf="http://www.w3.org/1999/02/22-rdf-syntax-ns#"
   xmlns:svg="http://www.w3.org/2000/svg"
   xmlns="http://www.w3.org/2000/svg"
   xmlns:sodipodi="http://sodipodi.sourceforge.net/DTD/sodipodi-0.dtd"
   xmlns:inkscape="http://www.inkscape.org/namespaces/inkscape"
   width="144.36852mm"
   height="35.440956mm"
   viewBox="0 0 511.54198 125.57819"
   id="svg2"
   version="1.1"
   inkscape:version="0.91 r13725"
   sodipodi:docname="quadcopter-side.svg">
  <defs
     id="defs4">
    <linearGradient
       id="linearGradient4176"
       osb:paint="solid">
      <stop
         style="stop-color:#000000;stop-opacity:1;"
         offset="0"
         id="stop4178" />
    </linearGradient>
    <linearGradient
       id="linearGradient4243"
       osb:paint="solid">
      <stop
         style="stop-color:#000000;stop-opacity:1;"
         offset="0"
         id="stop4245" />
    </linearGradient>
  </defs>
  <sodipodi:namedview
     id="base"
     pagecolor="#ffffff"
     bordercolor="#666666"
     borderopacity="1.0"
     inkscape:pageopacity="0.0"
     inkscape:pageshadow="2"
     inkscape:zoom="1.979899"
     inkscape:cx="179.38254"
     inkscape:cy="-0.59901075"
     inkscape:document-units="px"
     inkscape:current-layer="layer1-0"
     showgrid="false"
     fit-margin-top="0"
     fit-margin-left="0"
     fit-margin-right="0"
     fit-margin-bottom="0" />
  <metadata
     id="metadata7">
    <rdf:RDF>
      <cc:Work
         rdf:about="">
        <dc:format>image/svg+xml</dc:format>
        <dc:type
           rdf:resource="http://purl.org/dc/dcmitype/StillImage" />
        <dc:title></dc:title>
      </cc:Work>
    </rdf:RDF>
  </metadata>
  <g
     inkscape:label="Layer 1"
     inkscape:groupmode="layer"
     id="layer1"
     transform="translate(-75.657582,-398.14453)">
    <g
       transform="translate(-14.285716,48.571419)"
       id="layer1-7"
       inkscape:label="Layer 1">
      <g
         inkscape:label="Layer 1"
         id="layer1-0"
         transform="translate(19.737696,-124.7924)">
        <g
           id="structure"
           style="fill-opacity:1;">
          <path
             sodipodi:nodetypes="ccccccccc"
             inkscape:connector-curvature="0"
             id="rect3347"
             d="m 262.33591,526.43667 c -3.62917,-1.4e-4 -6.57161,0.97111 -6.57226,2.16941 l -9.84899,19.31371 c 6.5e-4,1.19829 2.94309,2.16955 6.57226,2.16941 l 147.12259,0 c 3.62841,-2.2e-4 6.56966,-0.97137 6.57031,-2.16941 l -9.34391,-19.31371 c -6.5e-4,-1.19804 -2.9419,-2.16919 -6.57031,-2.16941 z"
             style="color:#000000;font-style:normal;font-variant:normal;font-weight:normal;font-stretch:normal;font-size:medium;line-height:normal;font-family:sans-serif;text-indent:0;text-align:start;text-decoration:none;text-decoration-line:none;text-decoration-style:solid;text-decoration-color:#000000;letter-spacing:normal;word-spacing:normal;text-transform:none;direction:ltr;block-progression:tb;writing-mode:lr-tb;baseline-shift:baseline;text-anchor:start;white-space:normal;clip-rule:nonzero;display:inline;overflow:visible;visibility:visible;opacity:1;isolation:auto;mix-blend-mode:normal;color-interpolation:sRGB;color-interpolation-filters:linearRGB;solid-color:#000000;solid-opacity:1;fill-opacity:1;fill-rule:nonzero;marker:none;color-rendering:auto;image-rendering:auto;shape-rendering:auto;text-rendering:auto;enable-background:accumulate;" />
          <rect
             y="546.27576"
             x="140.41119"
             height="9.5964489"
             width="370.72598"
             id="rect4150"
             style="color:#000000;clip-rule:nonzero;display:inline;overflow:visible;visibility:visible;opacity:1;isolation:auto;mix-blend-mode:normal;color-interpolation:sRGB;color-interpolation-filters:linearRGB;solid-color:#000000;solid-opacity:1;fill-opacity:1;fill-rule:nonzero;marker:none;color-rendering:auto;image-rendering:auto;shape-rendering:auto;text-rendering:auto;enable-background:accumulate;" />
          <path
             sodipodi:nodetypes="ccccccccc"
             inkscape:connector-curvature="0"
             id="rect3347-2"
             d="m 399.7979,583.35586 c 4.20103,1.8e-4 7.60713,-1.30291 7.60788,-2.91062 l 11.40095,-25.91251 c -7.6e-4,-1.6077 -3.40685,-2.9108 -7.60789,-2.91062 l -170.30546,0 c -4.20016,3e-4 -7.60487,1.30325 -7.60563,2.91062 l 10.81628,25.91251 c 7.5e-4,1.60737 3.40547,2.91033 7.60563,2.91062 z"
             style="color:#000000;font-style:normal;font-variant:normal;font-weight:normal;font-stretch:normal;font-size:medium;line-height:normal;font-family:sans-serif;text-indent:0;text-align:start;text-decoration:none;text-decoration-line:none;text-decoration-style:solid;text-decoration-color:#000000;letter-spacing:normal;word-spacing:normal;text-transform:none;direction:ltr;block-progression:tb;writing-mode:lr-tb;baseline-shift:baseline;text-anchor:start;white-space:normal;clip-rule:nonzero;display:inline;overflow:visible;visibility:visible;opacity:1;isolation:auto;mix-blend-mode:normal;color-interpolation:sRGB;color-interpolation-filters:linearRGB;solid-color:#000000;solid-opacity:1;fill-opacity:1;fill-rule:nonzero;marker:none;color-rendering:auto;image-rendering:auto;shape-rendering:auto;text-rendering:auto;enable-background:accumulate;" />
          <ellipse
             ry="8.586297"
             rx="42.17387"
             cy="580.11584"
             cx="326.04724"
             id="path4198"
             style="color:#000000;clip-rule:nonzero;display:inline;overflow:visible;visibility:visible;opacity:1;isolation:auto;mix-blend-mode:normal;color-interpolation:sRGB;color-interpolation-filters:linearRGB;solid-color:#000000;solid-opacity:1;fill-opacity:1;fill-rule:nonzero;marker:none;color-rendering:auto;image-rendering:auto;shape-rendering:auto;text-rendering:auto;enable-background:accumulate;" />
        </g>
        <g
           id="propellers"
           style="">
          <g
             style="fill-opacity:1;"
             id="propeller-left">
            <path
               style="fill-opacity:1;fill-rule:evenodd;"
               d="m 136.11806,546.02324 c -4.90067,1.67783 -12.76304,5.06942 -15.65737,11.11168 -2.89433,6.04226 -1.54029,13.49959 1.26269,20.96066 2.80298,7.46107 9.5249,19.08115 16.41498,21.21321 6.89008,2.13206 11.24263,-1.49981 15.65737,-5.05077 4.41474,-3.55096 6.95684,-9.65479 8.83883,-15.15228 1.88199,-5.49749 3.21338,-12.07392 2.27284,-17.1726 -0.94054,-5.09868 -3.4721,-9.33228 -6.56599,-12.12183 -3.09389,-2.78955 -6.56487,-3.62215 -10.35406,-4.29315 -3.78919,-0.671 -6.96862,-1.17275 -11.86929,0.50508 z"
               id="path4152"
               inkscape:connector-curvature="0"
               sodipodi:nodetypes="zzzzzzzzzz" />
            <path
               inkscape:connector-curvature="0"
               style="color:#000000;clip-rule:nonzero;display:inline;overflow:visible;visibility:visible;opacity:1;isolation:auto;mix-blend-mode:normal;color-interpolation:sRGB;color-interpolation-filters:linearRGB;solid-color:#000000;solid-opacity:1;fill-opacity:1;fill-rule:nonzero;marker:none;color-rendering:auto;image-rendering:auto;shape-rendering:auto;text-rendering:auto;enable-background:accumulate;"
               d="m 136.37061,513.69836 12.62691,0 0,41.92125 -12.62691,0 z"
               id="rect4154" />
            <path
               style="color:#000000;clip-rule:nonzero;display:inline;overflow:visible;visibility:visible;opacity:1;isolation:auto;mix-blend-mode:normal;color-interpolation:sRGB;color-interpolation-filters:linearRGB;solid-color:#000000;solid-opacity:1;fill-opacity:1;fill-rule:nonzero;marker:none;color-rendering:auto;image-rendering:auto;shape-rendering:auto;text-rendering:auto;enable-background:accumulate;"
               d="m 215.41504,487.93945 c 0,0 -32.31022,12.87945 -72.47845,12.87945 -40.16823,0 -72.730988,-13.13199 -72.730988,-13.13199 0,0 32.310238,-12.87944 72.478448,-12.87944 40.16821,0 72.73099,13.13198 72.73099,13.13198 z"
               id="path4157"
               inkscape:connector-curvature="0"
               sodipodi:nodetypes="cccsc" />
          </g>
          <g
             style="fill-opacity:1;"
             id="propeller-right">
            <path
               style="fill-opacity:1;fill-rule:evenodd;"
               d="m 502.4506,545.58129 c -4.90067,1.67783 -12.76304,5.06942 -15.65737,11.11168 -2.89433,6.04226 -1.54029,13.49959 1.26269,20.96065 2.80298,7.46107 9.5249,19.08115 16.41498,21.21321 6.89008,2.13206 11.24263,-1.49981 15.65737,-5.05077 4.41474,-3.55096 6.95684,-9.65479 8.83883,-15.15228 1.88199,-5.49748 3.21338,-12.07391 2.27284,-17.17259 -0.94054,-5.09868 -3.4721,-9.33228 -6.56599,-12.12183 -3.09389,-2.78955 -6.56487,-3.62215 -10.35406,-4.29315 -3.78919,-0.671 -6.96862,-1.17275 -11.86929,0.50508 z"
               id="path4152-6"
               inkscape:connector-curvature="0"
               sodipodi:nodetypes="zzzzzzzzzz" />
            <path
               inkscape:connector-curvature="0"
               style="color:#000000;clip-rule:nonzero;display:inline;overflow:visible;visibility:visible;opacity:1;isolation:auto;mix-blend-mode:normal;color-interpolation:sRGB;color-interpolation-filters:linearRGB;solid-color:#000000;solid-opacity:1;fill-opacity:1;fill-rule:nonzero;marker:none;color-rendering:auto;image-rendering:auto;shape-rendering:auto;text-rendering:auto;enable-background:accumulate;"
               d="m 502.70315,513.25641 12.62691,0 0,41.92125 -12.62691,0 z"
               id="rect4154-1" />
            <path
               style="color:#000000;clip-rule:nonzero;display:inline;overflow:visible;visibility:visible;opacity:1;isolation:auto;mix-blend-mode:normal;color-interpolation:sRGB;color-interpolation-filters:linearRGB;solid-color:#000000;solid-opacity:1;fill-opacity:1;fill-rule:nonzero;marker:none;color-rendering:auto;image-rendering:auto;shape-rendering:auto;text-rendering:auto;enable-background:accumulate;"
               d="m 581.74758,487.4975 c 0,0 -32.31022,12.87945 -72.47845,12.87945 -40.16823,0 -72.73099,-13.13199 -72.73099,-13.13199 0,0 32.31024,-12.87944 72.47845,-12.87944 40.16821,0 72.73099,13.13198 72.73099,13.13198 z"
               id="path4157-3"
               inkscape:connector-curvature="0"
               sodipodi:nodetypes="cccsc" />
          </g>
        </g>
      </g>
    </g>
  </g>
</svg>
